<svg xmlns="http://www.w3.org/2000/svg" viewBox="0 0 500 500"><g id="freepik--background-complete--inject-56"><path d="M157.05,460.9h-.79l.16-15.3a8.65,8.65,0,0,1,8.62-8.52h43.85a8.6,8.6,0,0,1,8.62,8.7l-.16,15.12h-.78l.16-15.13a7.84,7.84,0,0,0-7.84-7.91H165a7.87,7.87,0,0,0-7.84,7.75Z" style="fill:#e0e0e0"></path><path d="M161.73,462.79a5.12,5.12,0,1,1-5.11-5.11A5.11,5.11,0,0,1,161.73,462.79Z" style="fill:#e0e0e0"></path><path d="M221.41,462.79a5.12,5.12,0,1,1-5.12-5.11A5.12,5.12,0,0,1,221.41,462.79Z" style="fill:#e0e0e0"></path><path d="M22,460.9h-.79l.16-15.3A8.64,8.64,0,0,1,30,437.08H73.86a8.6,8.6,0,0,1,8.62,8.7l-.16,15.12h-.78l.16-15.13a7.84,7.84,0,0,0-7.84-7.91H30a7.87,7.87,0,0,0-7.84,7.75Z" style="fill:#e0e0e0"></path><path d="M26.7,462.79a5.12,5.12,0,1,1-5.12-5.11A5.12,5.12,0,0,1,26.7,462.79Z" style="fill:#e0e0e0"></path><path d="M86.38,462.79a5.12,5.12,0,1,1-5.12-5.11A5.12,5.12,0,0,1,86.38,462.79Z" style="fill:#e0e0e0"></path><path d="M187.27,437.08h-.77V191.89a8.48,8.48,0,0,0-8.46-8.47h-119a8.47,8.47,0,0,0-8.46,8.47V437.08h-.78V191.89a9.25,9.25,0,0,1,9.24-9.24H178a9.24,9.24,0,0,1,9.23,9.24Z" style="fill:#e0e0e0"></path><path d="M93.88,187.58H98a7.21,7.21,0,0,1,7.21,7.21V408.36a0,0,0,0,1,0,0H86.68a0,0,0,0,1,0,0V194.78A7.21,7.21,0,0,1,93.88,187.58Z" style="fill:#f5f5f5"></path><path d="M109,189.6h2.14a3.72,3.72,0,0,1,3.72,3.72V421.09a0,0,0,0,1,0,0h-9.58a0,0,0,0,1,0,0V193.32A3.72,3.72,0,0,1,109,189.6Z" style="fill:#e0e0e0"></path><path d="M70.93,189.6h4.14a7.21,7.21,0,0,1,7.21,7.21V410.38a0,0,0,0,1,0,0H63.73a0,0,0,0,1,0,0V196.81A7.21,7.21,0,0,1,70.93,189.6Z" style="fill:#ebebeb"></path><path d="M73,191.21c-.56,0-1-2.87-1-6.4s.45-6.41,1-6.41,1,2.87,1,6.41S73.56,191.21,73,191.21Z" style="fill:#e0e0e0"></path><path d="M94.77,188.44c-.56,0-1-1.9-1-4.24s.45-4.24,1-4.24,1,1.9,1,4.24S95.32,188.44,94.77,188.44Z" style="fill:#e0e0e0"></path><path d="M109.32,192.6c-.56,0-1-2.41-1-5.37s.45-5.37,1-5.37,1,2.4,1,5.37S109.87,192.6,109.32,192.6Z" style="fill:#e0e0e0"></path><path d="M152,187.58h4.14a7.21,7.21,0,0,1,7.21,7.21V408.36a0,0,0,0,1,0,0H144.82a0,0,0,0,1,0,0V194.78A7.21,7.21,0,0,1,152,187.58Z" style="fill:#f5f5f5"></path><path d="M167.1,189.6h2.14a3.72,3.72,0,0,1,3.72,3.72V421.09a0,0,0,0,1,0,0h-9.58a0,0,0,0,1,0,0V193.32A3.72,3.72,0,0,1,167.1,189.6Z" style="fill:#e0e0e0"></path><path d="M129.08,189.6h4.14a7.21,7.21,0,0,1,7.21,7.21V410.38a0,0,0,0,1,0,0H121.87a0,0,0,0,1,0,0V196.81A7.21,7.21,0,0,1,129.08,189.6Z" style="fill:#ebebeb"></path><path d="M131.15,191.21c-.55,0-1-2.87-1-6.4s.45-6.41,1-6.41,1,2.87,1,6.41S131.71,191.21,131.15,191.21Z" style="fill:#e0e0e0"></path><path d="M152.92,188.44c-.56,0-1-1.9-1-4.24s.45-4.24,1-4.24,1,1.9,1,4.24S153.47,188.44,152.92,188.44Z" style="fill:#e0e0e0"></path><path d="M167.47,192.6c-.56,0-1-2.41-1-5.37s.45-5.37,1-5.37,1,2.4,1,5.37S168,192.6,167.47,192.6Z" style="fill:#e0e0e0"></path><rect x="386.24" y="248.14" width="5.22" height="112.21" transform="translate(777.7 608.5) rotate(180)" style="fill:#e0e0e0"></rect><polygon points="391.46 360.36 429.74 468.36 425.25 468.36 386.24 360.36 391.46 360.36" style="fill:#e0e0e0"></polygon><polygon points="386.13 360.36 347.85 468.36 352.43 468.36 391.35 360.36 386.13 360.36" style="fill:#e0e0e0"></polygon><rect x="369.65" y="414.97" width="38.39" height="3.83" style="fill:#e0e0e0"></rect><polygon points="367.3 189.5 346.96 196.45 337.22 182.15 348.72 167.89 367.3 189.5" style="fill:#ebebeb"></polygon><path d="M396.66,151.83h0a8.67,8.67,0,0,1-2.17,12.23l-21.16,13.43-9.8-13.37,21.21-14.41A8.68,8.68,0,0,1,396.66,151.83Z" style="fill:#ebebeb"></path><path d="M369.54,162.75l-24.41,4.33,20.77,26.36S376,172.12,376,171.11Z" style="fill:#ebebeb"></path><rect x="387.54" y="161.19" width="2.61" height="86.95" transform="translate(777.7 409.33) rotate(180)" style="fill:#ebebeb"></rect><polygon points="364.11 190.14 359.62 206.3 362.44 206.81 366.34 192.53 364.11 190.14" style="fill:#ebebeb"></polygon><polygon points="345.13 167.08 330.38 169.44 331.66 171.93 348.52 169.44 345.13 167.08" style="fill:#ebebeb"></polygon><path d="M373.58,177.33a11.87,11.87,0,0,0-1.28-2.08c-1-1.41-2.09-3.05-3.32-4.87s-2.54-3.58-3.46-4.77a10.75,10.75,0,0,0-1.59-1.87,11.69,11.69,0,0,0,1.28,2.09l3.33,4.86c1.31,1.89,2.53,3.58,3.45,4.78A10.39,10.39,0,0,0,373.58,177.33Z" style="fill:#e0e0e0"></path><path d="M365.39,165.71a16,16,0,0,0-2.7.55c-1.65.39-3.93.93-6.46,1.49s-4.82,1-6.49,1.35a14.42,14.42,0,0,0-2.68.63,13.34,13.34,0,0,0,2.75-.26c1.68-.24,4-.65,6.53-1.2s4.81-1.16,6.45-1.65A12.65,12.65,0,0,0,365.39,165.71Z" style="fill:#e0e0e0"></path><path d="M371.42,175.84a9.14,9.14,0,0,0-1.58,1.92,39.88,39.88,0,0,0-3.07,5.15,38.78,38.78,0,0,0-2.28,5.54,9.78,9.78,0,0,0-.6,2.41,13.81,13.81,0,0,0,.95-2.29c.56-1.41,1.37-3.35,2.4-5.43s2.11-3.88,2.92-5.17A14.88,14.88,0,0,0,371.42,175.84Z" style="fill:#e0e0e0"></path></g><g id="freepik--Plant--inject-56"><path d="M399.29,277c-9.9,5.12-17.49,13.95-23,23.67s-9,20.39-12.46,31l-3.05,54.62c11.52-19.6,20.77-42.63,23.26-65.23l-7.66-.68c5.14-.78,9.45-4.51,12.2-8.92s4.15-9.51,5.53-14.52l-9.35,1.39A34.72,34.72,0,0,0,399.29,277Z" style="fill:#455a64"></path><g style="opacity:0.30000000000000004"><path d="M399.29,277c-9.9,5.12-17.49,13.95-23,23.67s-9,20.39-12.46,31l-3.05,54.62c11.52-19.6,20.77-42.63,23.26-65.23l-7.66-.68c5.14-.78,9.45-4.51,12.2-8.92s4.15-9.51,5.53-14.52l-9.35,1.39A34.72,34.72,0,0,0,399.29,277Z"></path></g><path d="M359.13,399s-25-29.93-24.72-58.5h10.1s-11-7.21-10.1-11.25S335.57,310,335.57,310l9.23,2.31s-6.92-3.47-7.79-8.95,2-30.88,2-30.88,11.25,11.84,14.72,23.95,12.55,26.26,9.88,63.2S359.13,399,359.13,399Z" style="fill:#455a64"></path><path d="M371.8,401.86s27.09-18,33.11-41.07l-8.12-2.21s10.39-3.4,10.58-6.84,3.3-15.8,3.3-15.8l-7.93-.16s6.33-1.27,8.22-5.49S416.09,305,416.09,305s-11.63,7.05-17.07,16-15.83,18.37-21.77,48.65S371.8,401.86,371.8,401.86Z" style="fill:#455a64"></path><path d="M345.86,298.54a1.12,1.12,0,0,1,.09.31c.06.23.13.53.22.92.19.84.46,2,.8,3.55s.75,3.43,1.19,5.63,1,4.7,1.48,7.48c1.07,5.55,2.2,12.18,3.37,19.56s2.25,15.53,3.25,24.09,1.74,16.75,2.33,24.2,1,14.17,1.18,19.82c.14,2.82.2,5.37.27,7.62s.11,4.17.13,5.75,0,2.77,0,3.64v.95a2,2,0,0,1,0,.32,1.64,1.64,0,0,1,0-.32c0-.24,0-.56,0-.95,0-.86-.08-2.08-.14-3.63s-.11-3.51-.21-5.75-.18-4.8-.35-7.62c-.27-5.64-.71-12.35-1.29-19.79s-1.39-15.62-2.37-24.18-2.11-16.69-3.21-24.08-2.23-14-3.26-19.56c-.48-2.78-1-5.29-1.39-7.49s-.79-4.11-1.11-5.65-.53-2.72-.7-3.57c-.07-.39-.13-.7-.17-.93A1.11,1.11,0,0,1,345.86,298.54Z" style="fill:#263238"></path><path d="M355.66,417.36s-22.88-26-30-41.65l5.37-2.29c-3.89.64-7.87-1-10.89-3.57s-5.22-5.87-7.4-9.16l7.07-1.2a26.26,26.26,0,0,1-15.44-11.95c8.34,1.37,15.88,5.95,22.1,11.67a111.36,111.36,0,0,1,13.39,15.51,54,54,0,0,1,5.2,8.55C348.91,391.22,355.67,407.83,355.66,417.36Z" style="fill:#455a64"></path><path d="M405.27,320.14a2.69,2.69,0,0,1-.11.26c-.09.2-.2.45-.35.76L403.42,324c-1.22,2.49-2.95,6.12-5.05,10.62-4.21,9-9.75,21.55-15.22,35.69S373.34,397.51,370.4,407c-1.48,4.75-2.63,8.6-3.4,11.26l-.92,3.07-.24.79a1,1,0,0,1-.11.27,1.17,1.17,0,0,1,0-.28l.2-.81c.2-.74.47-1.78.82-3.09.71-2.69,1.82-6.56,3.25-11.31,2.85-9.52,7.15-22.58,12.61-36.73s11.08-26.7,15.37-35.66c2.15-4.48,3.93-8.08,5.21-10.55.63-1.21,1.12-2.16,1.48-2.84l.39-.73C405.21,320.21,405.26,320.13,405.27,320.14Z" style="fill:#263238"></path><path d="M357.6,428.49a1.76,1.76,0,0,1-.12-.48c-.06-.38-.13-.83-.22-1.38-.18-1.2-.48-2.92-.9-5s-1-4.64-1.76-7.4-1.72-5.75-2.88-8.84-2.44-6-3.68-8.54-2.47-4.83-3.57-6.7-2-3.37-2.66-4.38l-.74-1.19a2.26,2.26,0,0,1-.23-.43s.13.12.32.37l.82,1.13c.71,1,1.68,2.46,2.81,4.31s2.39,4.12,3.68,6.68,2.56,5.47,3.74,8.57,2.1,6.13,2.86,8.9,1.28,5.31,1.65,7.45.62,3.88.74,5.09c.05.55.09,1,.13,1.39A1.85,1.85,0,0,1,357.6,428.49Z" style="fill:#263238"></path><rect x="337.71" y="422.38" width="50.08" height="10.21" style="fill:#FBBF24"></rect><polygon points="342.49 432.59 347.9 466.95 378.16 466.95 383.21 432.59 342.49 432.59" style="fill:#FBBF24"></polygon><path d="M384.72,432.59c0,.15-9.48.26-21.16.26s-21.16-.11-21.16-.26,9.47-.26,21.16-.26S384.72,432.45,384.72,432.59Z" style="fill:#263238"></path></g><g id="freepik--Floor--inject-56"><path d="M471.87,467c0,.15-99.34.26-221.86.26S28.13,467.1,28.13,467s99.32-.26,221.88-.26S471.87,466.81,471.87,467Z" style="fill:#263238"></path></g><g id="freepik--Sparkles--inject-56"><path d="M193.31,68.07l4.7,1.3-3.47.85c-1.77.28-2.57,1-2.89,2L190.57,81l-1.34-8.76a3.1,3.1,0,0,0-1.83-1.77l-4.51-1.1L187.65,68a3.11,3.11,0,0,0,1.73-1.77l1.19-9.9.85,9.69A3.09,3.09,0,0,0,193.31,68.07Z" style="fill:#FBBF24"></path><path d="M316.9,299.24l2.8.77-2.07.51a1.89,1.89,0,0,0-1.73,1.21l-.64,5.21-.8-5.22a1.82,1.82,0,0,0-1.09-1.05l-2.69-.66,2.84-.8a1.88,1.88,0,0,0,1-1.06l.71-5.9.51,5.77A1.86,1.86,0,0,0,316.9,299.24Z" style="fill:#FBBF24"></path><path d="M334.5,192l3.95,1.08-2.92.72c-1.49.24-2.16.88-2.43,1.71l-.91,7.34-1.12-7.35a2.6,2.6,0,0,0-1.54-1.49l-3.78-.93,4-1.13a2.64,2.64,0,0,0,1.45-1.48l1-8.32.72,8.14A2.63,2.63,0,0,0,334.5,192Z" style="fill:#FBBF24"></path><path d="M176.78,98.07l2.8.78-2.07.5c-1.06.17-1.53.63-1.72,1.22l-.65,5.21-.79-5.22a1.88,1.88,0,0,0-1.1-1.06l-2.69-.65L173.4,98a1.81,1.81,0,0,0,1-1.05l.71-5.91.51,5.78A1.82,1.82,0,0,0,176.78,98.07Z" style="fill:#FBBF24"></path></g><g id="freepik--Character--inject-56"><path d="M232.22,435.87l.36,20.1s-20.31,7.12-20.61,10.84l39,.71.73-31.34Z" style="fill:#263238"></path><path d="M244.67,454.5a1.6,1.6,0,0,1,1.07,1.84,1.54,1.54,0,0,1-1.81,1.08,1.68,1.68,0,0,1-1.12-2,1.57,1.57,0,0,1,2-.9" style="fill:#e0e0e0"></path><path d="M251,467.52l-.05-3.16-37.37.5s-1.75.72-1.58,1.95Z" style="fill:#455a64"></path><path d="M232,455.76c0,.19,1,.3,1.88.93s1.41,1.44,1.59,1.36-.09-1.17-1.22-1.92S231.91,455.59,232,455.76Z" style="fill:#fff"></path><path d="M227.83,457.38c-.05.19.77.52,1.4,1.34s.81,1.67,1,1.67.33-1.08-.48-2.08S227.84,457.2,227.83,457.38Z" style="fill:#fff"></path><path d="M225.42,462.23c.17,0,.45-.9,0-2S224.05,458.8,224,459s.45.73.83,1.6S225.23,462.21,225.42,462.23Z" style="fill:#fff"></path><path d="M232.38,451.17c.08.18,1-.07,2,0s1.91.44,2,.28-.69-.85-2-1S232.29,451,232.38,451.17Z" style="fill:#fff"></path><path d="M279.81,434.64l2.11,24.23-3.86,19.65a2.5,2.5,0,0,0,2.14,3h0a2.47,2.47,0,0,0,2.14-.78c3.48-3.79,16.2-17.8,15.94-19.56-.29-2-.53-25.71-.53-25.71Z" style="fill:#263238"></path><path d="M280.2,481.47l18-22,.06,1a3.77,3.77,0,0,1-.73,2.49c-1.42,1.91-5.48,7.09-15.1,17.68a2.48,2.48,0,0,1-2.21.78Z" style="fill:#455a64"></path><g style="opacity:0.6000000000000001"><path d="M292.69,452a1.5,1.5,0,0,0-.28,2,1.45,1.45,0,0,0,2,.3,1.59,1.59,0,0,0,.29-2.11,1.51,1.51,0,0,0-2.09-.08" style="fill:#fff"></path></g><path d="M285.06,470.51a7.58,7.58,0,0,0-2.25-1.75,7.2,7.2,0,0,0-2.82-.35c0-.06.27-.27.83-.39a3.86,3.86,0,0,1,2.2.25,3.91,3.91,0,0,1,1.73,1.38C285.06,470.13,285.12,470.49,285.06,470.51Z" style="fill:#fff"></path><path d="M283.54,473.87a21.58,21.58,0,0,0-2.21-.9,21,21,0,0,0-2.39-.16,2.73,2.73,0,0,1,2.51-.36C282.9,472.77,283.67,473.8,283.54,473.87Z" style="fill:#fff"></path><path d="M288,466.14a25.17,25.17,0,0,0-3.33-1.63,24.5,24.5,0,0,0-3.66-.61,6.83,6.83,0,0,1,7,2.24Z" style="fill:#fff"></path><path d="M288,458.72c-.06.15-1.43-.33-3.18-.28s-3.11.56-3.17.41a4.88,4.88,0,0,1,3.16-.94A4.78,4.78,0,0,1,288,458.72Z" style="fill:#fff"></path><path d="M287.55,451.59a12.25,12.25,0,0,0-3.31-.37,12.11,12.11,0,0,0-3.16,1c-.05-.05.2-.37.74-.73a5.31,5.31,0,0,1,2.37-.82,5.42,5.42,0,0,1,2.49.34C287.28,451.27,287.58,451.54,287.55,451.59Z" style="fill:#fff"></path><path d="M284.2,449.86a2.06,2.06,0,0,1-.09-.92,6.32,6.32,0,0,1,.57-2.45,2.84,2.84,0,0,1,1.13-1.43,1,1,0,0,1,1.14.15,1.67,1.67,0,0,1,.46,1.07,3.53,3.53,0,0,1-2.88,3.45,4.09,4.09,0,0,1-4.14-1.87,1.45,1.45,0,0,1-.14-1.18,1,1,0,0,1,1-.58,3.45,3.45,0,0,1,1.65.73,7,7,0,0,1,1.78,1.78,2.13,2.13,0,0,1,.43.81,11.38,11.38,0,0,0-2.42-2.28,3.37,3.37,0,0,0-1.45-.6.51.51,0,0,0-.54.32,1,1,0,0,0,.13.76,3.66,3.66,0,0,0,3.61,1.59,3,3,0,0,0,2.48-2.9,1.17,1.17,0,0,0-.28-.76.56.56,0,0,0-.63-.09,2.62,2.62,0,0,0-1,1.19A9.63,9.63,0,0,0,284.2,449.86Z" style="fill:#fff"></path><path d="M280.2,274.26s17,6.36,20.41,4.06,6.61-4.31,7.76-10.92,8.62-46.11,6-60.41-13.8-43.61-13.8-43.61c-3.87-10.35-12.91-13.76-23-15.8l-19,4,20.25,112.84Z" style="fill:#FBBF24"></path><path d="M280.2,274.26s17,6.36,20.41,4.06,6.61-4.31,7.76-10.92,8.62-46.11,6-60.41-13.8-43.61-13.8-43.61c-3.87-10.35-12.91-13.76-23-15.8l-19,4,20.25,112.84Z" style="opacity:0.30000000000000004"></path><path d="M300.24,229.74a1.47,1.47,0,0,1,.05.49c0,.39,0,.86,0,1.43s0,1.38-.06,2.26-.09,1.88-.19,3a142.89,142.89,0,0,1-2.72,17.1c-1.42,6.62-3,12.54-4.17,16.81-.59,2.13-1.09,3.85-1.45,5l-.43,1.36c-.1.31-.16.47-.18.46a1.67,1.67,0,0,1,.08-.49c.09-.38.2-.83.33-1.39.33-1.27.77-3,1.3-5.08,1.1-4.29,2.59-10.22,4-16.82a169,169,0,0,0,2.86-17c.12-1.1.22-2.09.27-3s.13-1.63.15-2.24.05-1,.06-1.43A3.26,3.26,0,0,1,300.24,229.74Z" style="fill:#263238"></path><path d="M311.87,237.78a12.84,12.84,0,0,1-4.29-.11,12.56,12.56,0,0,1-4.16-1,30.17,30.17,0,0,1,4.23.52A28.76,28.76,0,0,1,311.87,237.78Z" style="fill:#263238"></path><path d="M306.59,265.24a15.25,15.25,0,0,1-3.85-.72,14.81,14.81,0,0,1-3.71-1.23,15.21,15.21,0,0,1,3.84.72A14.79,14.79,0,0,1,306.59,265.24Z" style="fill:#263238"></path><path d="M211.65,260.88s-3.54,19.05-2.46,33C209.6,299.27,230,448.15,230,448.15h24.59L247.7,307.8l2,.44s13.43,59.86,14.52,69.55c1,8.71,12.31,72,12.31,72l22.49.26-7.18-83.72L283.49,286l-3.15-23.38Z" style="fill:#455a64"></path><path d="M251.57,293.48a4.6,4.6,0,0,1-1,.58,12.16,12.16,0,0,1-3.05,1.07,6.33,6.33,0,0,1-2.26,0,4.63,4.63,0,0,1-2.37-1.14,5.62,5.62,0,0,1-1.44-2.51c-.29-.95-.45-1.95-.66-3-.78-4-1.31-7.75-1.62-10.43-.16-1.34-.26-2.43-.32-3.18a5.88,5.88,0,0,1,0-1.18,4.53,4.53,0,0,1,.23,1.15l.48,3.16c.4,2.67,1,6.35,1.77,10.38.4,2,.67,4,1.92,5.23a5.07,5.07,0,0,0,4.24,1.1,13.18,13.18,0,0,0,3-.89A6.69,6.69,0,0,1,251.57,293.48Z" style="fill:#263238"></path><path d="M244.17,274.44s.16-.12.51-.14a2.12,2.12,0,0,1,1.37.44,2.43,2.43,0,0,1,1,1.9,2.43,2.43,0,0,1-4.15,1.55,2.45,2.45,0,0,1-.47-2.11,2.22,2.22,0,0,1,.75-1.24c.27-.21.47-.24.47-.22a2.85,2.85,0,0,0-.86,1.53,2.17,2.17,0,0,0,.47,1.73,2,2,0,0,0,3.31-1.25,2.15,2.15,0,0,0-.78-1.6A2.83,2.83,0,0,0,244.17,274.44Z" style="fill:#263238"></path><path d="M283.15,284.57a3,3,0,0,1-.84.13,16.51,16.51,0,0,1-2.31,0,22.43,22.43,0,0,1-13.81-5.82,15.92,15.92,0,0,1-1.59-1.67c-.34-.42-.52-.67-.49-.69s.86.84,2.33,2.08A24.78,24.78,0,0,0,280,284.36C281.94,284.54,283.14,284.48,283.15,284.57Z" style="fill:#263238"></path><path d="M223.36,274.9a10.61,10.61,0,0,1-1.28,2.51,27.85,27.85,0,0,1-4.26,5.29,28.28,28.28,0,0,1-5.41,4.11,10.7,10.7,0,0,1-2.55,1.21,27.15,27.15,0,0,1,2.35-1.52,34.76,34.76,0,0,0,5.24-4.18,35.2,35.2,0,0,0,4.33-5.12A25.91,25.91,0,0,1,223.36,274.9Z" style="fill:#263238"></path><path d="M210.25,106.91c1.59-2,3.55-3.94,4-6.46.37-2.32-.64-4.86.4-7,1.28-2.59,5-3.09,6.55-5.5.77-1.17,1-2.65,1.72-3.82,1.3-2,4-2.65,6.35-2.51s4.7.87,7.09.92c3.27.07,6.58-1.15,9.76-.37,3.5.86,5.77,3.82,8.16,6.67l3.1,3.29a13.32,13.32,0,0,0,2,1.49,22.76,22.76,0,0,1,3.82,2.18,5.77,5.77,0,0,1,0,8.33,6.17,6.17,0,0,1,4.45,5.85,17.44,17.44,0,0,1-.91,4.25,6.17,6.17,0,0,0,.09,4.26c.64,1.3,2.39,2.13,3.61,1.35a6.46,6.46,0,0,1-3.33,4.5,3.9,3.9,0,0,0,2.67,1c-2.34,6.33-9.38,10-16.13,10.3s-13.33-1.89-19.72-4.11l-18.4-3.86c-1.61-.29-2.37-2.2-2.43-3.84s.28-3.36-.37-4.86c-.9-2.06-3.4-3.06-4.33-5.1C207.34,111.62,208.67,108.91,210.25,106.91Z" style="fill:#263238"></path><path d="M254.05,121.45a75.3,75.3,0,0,0,2.61-12.68A26.12,26.12,0,0,0,255,96.07c-.26-.61-2.41-4.62-3.06-4.52-.46.07.93,3.84.72,4.26a22.16,22.16,0,0,0-1.83,13.06,58.31,58.31,0,0,0,3.24,12.58" style="fill:#263238"></path><path d="M256.22,147.74,253.63,105c-.21-10.83-6.68-19.73-17.5-19.23l-1,.11a19.36,19.36,0,0,0-17.33,19.72c.23,9.39.61,19.75,1.2,24.74,1.21,10.32,11.72,10.84,11.72,10.84s.57,8.35.57,8.35" style="fill:#ffbe9d"></path><path d="M230.72,141.15a25.18,25.18,0,0,0,13-5.4s-2.44,7.86-12.85,8Z" style="fill:#eb996e"></path><path d="M223,113a1.48,1.48,0,0,0,1.58,1.34,1.42,1.42,0,0,0,1.38-1.49,1.49,1.49,0,0,0-1.58-1.34A1.41,1.41,0,0,0,223,113Z" style="fill:#263238"></path><path d="M220.46,109.63c.21.17,1.24-.77,2.83-.94s2.83.51,3,.3-.14-.42-.69-.74a4.11,4.11,0,0,0-2.42-.47,4,4,0,0,0-2.22,1C220.49,109.19,220.37,109.55,220.46,109.63Z" style="fill:#263238"></path><path d="M237.76,112a1.48,1.48,0,0,0,1.58,1.34,1.42,1.42,0,0,0,1.38-1.49,1.49,1.49,0,0,0-1.58-1.34A1.41,1.41,0,0,0,237.76,112Z" style="fill:#263238"></path><path d="M236.09,108.63c.2.18,1.23-.77,2.82-.93s2.84.51,3,.29-.15-.42-.69-.74a4.11,4.11,0,0,0-2.42-.47,3.93,3.93,0,0,0-2.22,1C236.12,108.19,236,108.56,236.09,108.63Z" style="fill:#263238"></path><path d="M231.68,121.44a10.66,10.66,0,0,0-2.63-.2c-.41,0-.8,0-.9-.31a2.1,2.1,0,0,1,.14-1.23c.28-1,.57-2.09.88-3.21,1.2-4.57,2-8.32,1.84-8.36s-1.31,3.62-2.51,8.19c-.29,1.13-.56,2.2-.82,3.23a2.33,2.33,0,0,0-.05,1.61,1.09,1.09,0,0,0,.73.53,2.81,2.81,0,0,0,.7,0A10.43,10.43,0,0,0,231.68,121.44Z" style="fill:#263238"></path><path d="M236.47,122c-.26,0-.08,1.74-1.43,3.12s-3.2,1.38-3.19,1.62.44.29,1.22.23a4.28,4.28,0,0,0,2.68-1.26,3.71,3.71,0,0,0,1.08-2.6C236.82,122.43,236.58,122,236.47,122Z" style="fill:#263238"></path><path d="M235.5,102.18c.2.41,1.76,0,3.65.07s3.45.38,3.65,0c.09-.19-.21-.57-.86-.93a6.19,6.19,0,0,0-2.78-.65,6,6,0,0,0-2.79.63C235.72,101.61,235.41,102,235.5,102.18Z" style="fill:#263238"></path><path d="M220.56,104.28c.32.33,1.38-.16,2.69-.31s2.45,0,2.67-.42c.09-.2-.12-.54-.64-.83a3.77,3.77,0,0,0-2.25-.36,3.71,3.71,0,0,0-2.07,1C220.54,103.73,220.42,104.12,220.56,104.28Z" style="fill:#263238"></path><path d="M253.59,112.71c.17-.09,6.88-2.85,7.4,4.24s-6.71,6.15-6.73,6S253.59,112.71,253.59,112.71Z" style="fill:#ffbe9d"></path><path d="M256.22,120.05s.13.08.35.16a1.2,1.2,0,0,0,.92,0,3.05,3.05,0,0,0,1.22-2.84,4.09,4.09,0,0,0-.48-1.75,1.42,1.42,0,0,0-1-.88.63.63,0,0,0-.7.4c-.08.2,0,.34-.06.35s-.16-.1-.13-.4a.76.76,0,0,1,.25-.46.89.89,0,0,1,.67-.23,1.71,1.71,0,0,1,1.37,1,4.2,4.2,0,0,1,.57,1.94c.06,1.44-.57,2.83-1.58,3.2a1.35,1.35,0,0,1-1.14-.11C256.25,120.22,256.2,120.07,256.22,120.05Z" style="fill:#eb996e"></path><path d="M221.64,93.53c-1.19-.56,2-4.5,4.75-6,4.14-2.21,10.58-3.82,14.58-3,4.82,1,8.9,3.14,11.56,7.29a27.93,27.93,0,0,1,4,14,8.46,8.46,0,0,1-.72,4.4c-.89,1.63-2.72,2.74-2.5,4.9a3,3,0,0,1-.6,2.21c-1.21,1.46-2.88.27-3.69-1-1.74-2.67-2.13-6-2.47-9.15a20.84,20.84,0,0,1,0-6.78c.27-1.2.75-2.36,1-3.57a4.28,4.28,0,0,0-.73-3.51,4.63,4.63,0,0,0-.62-.55,7.4,7.4,0,0,0-7.43-.92c-3.9,1.67-10.59,4.22-12.46,3A11,11,0,0,1,223,92Z" style="fill:#263238"></path><path d="M240.54,83.67A15.6,15.6,0,0,0,228.6,85.1a8.14,8.14,0,0,0-4,5c-.45,2.14.61,4.67,2.68,5.36l.15.08c3.09.82,5,.29,8-1,2.48-1,4.64-2.75,7.13-3.78A14.44,14.44,0,0,1,251,90,23.56,23.56,0,0,0,240.54,83.67Z" style="fill:#263238"></path><path d="M267.1,129s-.25,0-.72,0a3.71,3.71,0,0,1-1.9-.68,4.52,4.52,0,0,1-1.8-2.58,8.5,8.5,0,0,1,.08-4.24c.35-1.57,1-3.22,1.42-5.11a9.1,9.1,0,0,0,.16-3,5.69,5.69,0,0,0-1.22-3,7,7,0,0,0-2.85-1.81,18.19,18.19,0,0,1-3.11-1.33,10,10,0,0,1-3.92-5.66c-.77-2.31-1.08-4.72-1.71-7a12.77,12.77,0,0,0-3.16-6,8.55,8.55,0,0,0-5.68-2.25,11.11,11.11,0,0,0-5.21,1.15,16.54,16.54,0,0,0-5.75,5.07c-.54.74-.92,1.34-1.16,1.75a5,5,0,0,0-.35.64,3.6,3.6,0,0,0,.44-.59c.27-.39.67-1,1.23-1.67a16.79,16.79,0,0,1,5.75-4.87,10.86,10.86,0,0,1,5-1.05A8.07,8.07,0,0,1,248,89a12.33,12.33,0,0,1,3,5.78c.62,2.22.92,4.63,1.72,7a10.45,10.45,0,0,0,4.14,5.92,18.19,18.19,0,0,0,3.19,1.36,6.41,6.41,0,0,1,2.67,1.66,5.3,5.3,0,0,1,1.13,2.72,8.87,8.87,0,0,1-.12,2.87c-.37,1.84-1,3.5-1.37,5.11a8.83,8.83,0,0,0,0,4.4,4.74,4.74,0,0,0,2,2.67,3.66,3.66,0,0,0,2,.61A2.09,2.09,0,0,0,267.1,129Z" style="fill:#455a64"></path><path d="M233.07,83.59a4.53,4.53,0,0,0-2.15.33,8.22,8.22,0,0,0-5.6,8.21,4.31,4.31,0,0,0,.48,2.12c.09,0-.14-.82-.12-2.12a8.87,8.87,0,0,1,1.49-4.76,8.74,8.74,0,0,1,3.88-3.11C232.26,83.76,233.09,83.68,233.07,83.59Z" style="fill:#455a64"></path><path d="M218.79,90.71a3.68,3.68,0,0,0-.54,2.59,3.75,3.75,0,0,0,.84,2.5c.14-.06-.25-1.14-.33-2.53S218.93,90.75,218.79,90.71Z" style="fill:#455a64"></path><path d="M189.54,253.17l-4.09,38.5-3.88,14.58,4,10.88,7.86,6a2.25,2.25,0,0,0,1.17-1.94l3.69-.19a8.28,8.28,0,0,0-2.91-2.14l2.91-1a3,3,0,0,0-2.53-1.36,35.2,35.2,0,0,1-4.27-.39L189.92,314l-1.42-6.6,3.55-2.72,2.14,3.89.39,5.82s2.14.78,2.72-3.49.19-14-.39-15.54-1.75-4.86-1.75-4.86l9.43-34.34Z" style="fill:#ffbe9d"></path><path d="M231.16,148.67l-27.41,15,12.52,36.64,1.44,26.08-8.29,42.26s22.63,3.42,31.69,4.34c6,.61,41.21-3.32,41.21-3.32l-1.58-45.32-2.16-59.88,1.58-12.12-25.82-8.17Z" style="fill:#263238"></path><polygon points="230.72 149.86 230.72 145.83 256.49 142.06 256.22 149.86 230.22 152.65 230.72 149.86" style="fill:#263238"></polygon><path d="M277.93,151.63c.79,0,12.77.71,16.46,9.67s17.39,47.95,17.39,55.07-2.63,14.23-9,15.28-17.65-6.32-17.65-6.32l10-21.87-15.78-9-3.19-35.82Z" style="fill:#263238"></path><path d="M203.75,163.66s-3.37,3.56-3.86,13.21-3,42.83-3,42.83l-8.41,34.17,18.21,4.19,10-37,3.18-34.27Z" style="fill:#263238"></path><path d="M217.71,226.38a3.2,3.2,0,0,1-.08-.52c0-.41-.08-.9-.13-1.51-.1-1.39-.23-3.26-.39-5.55-.31-4.68-.7-11.16-1.1-18.32v-.09c-2.63-6.66-4.19-12.93-5.6-17.37-.69-2.22-1.29-4-1.71-5.24-.2-.57-.36-1-.5-1.41a3.37,3.37,0,0,1-.14-.51,1.85,1.85,0,0,1,.24.47c.14.31.35.78.58,1.38.49,1.21,1.14,3,1.88,5.2,1.51,4.42,3.12,10.68,5.74,17.29v.26c.4,7.15.73,13.63.95,18.32.09,2.29.17,4.17.22,5.56,0,.61,0,1.11,0,1.51A1.8,1.8,0,0,1,217.71,226.38Z" style="fill:#455a64"></path><path d="M214.74,269.24a6.9,6.9,0,0,1,.89-6.17c.14.06-.43,1.36-.67,3.05S214.89,269.21,214.74,269.24Z" style="fill:#455a64"></path><path d="M226,271.35a6,6,0,0,1-.94-3.27,5.84,5.84,0,0,1,.52-3.35c.15,0-.12,1.51,0,3.32S226.14,271.29,226,271.35Z" style="fill:#455a64"></path><path d="M238.8,274c-.16,0-.3-1.87-.76-4.14s-1.06-4.06-.92-4.12a10.66,10.66,0,0,1,1.43,4A10.88,10.88,0,0,1,238.8,274Z" style="fill:#455a64"></path><path d="M249.9,272.66a17.36,17.36,0,0,1-.61-3.52,18.44,18.44,0,0,1-.4-3.55,9.48,9.48,0,0,1,.92,3.47A9.79,9.79,0,0,1,249.9,272.66Z" style="fill:#455a64"></path><path d="M262.12,269.65c-.15,0-.07-1.55-.38-3.4s-.85-3.3-.71-3.36a8.79,8.79,0,0,1,1.09,6.76Z" style="fill:#455a64"></path><path d="M274.4,269.05c-.16,0-.2-1.9-1-4.06s-2-3.65-1.85-3.75a9.35,9.35,0,0,1,2.85,7.81Z" style="fill:#455a64"></path><path d="M255.65,138.38l.57,9.36.87,7.94,6.88,4.48s12.87-8.95,22.74-7.46,14.64,12.63,14.64,12.63S298,152.94,290,150.55A77.2,77.2,0,0,1,276.21,145l-5.76-6.61h-8.29A5,5,0,0,0,257.8,141h0Z" style="fill:#FBBF24"></path><path d="M250.69,156.64l6.4-1,6.88,4.48L265.89,171l2.24,12.47,27.05,18.86s5,6.9-1.18,17.14c0,0-4.91,5.15-8.83,4.73S260.45,190,260.45,190s-4.8-3.58-5-5.66,1-7,1-7L254.53,176l-1.92,1s1.44,5.75-1.92,6.39c0,0-1.75,2.08-3.67,1.6v-8a4,4,0,0,1-3.2-1l1.44-5.28,6.55-5.92,7.2.48-.32-4.16-3-1.76S250.37,159.84,250.69,156.64Z" style="fill:#ffbe9d"></path><path d="M255.65,159.36s2.5,1.88,4.5-1.69v-1.22l2.62,1.12a4.6,4.6,0,0,1-4.08,3.55h0a3.24,3.24,0,0,1-2.4-1.06Z" style="fill:#FBBF24"></path><path d="M264.14,154.55s-.22,0-.61-.16a3,3,0,0,1-.68-.31,5.41,5.41,0,0,1-.83-.53,9.63,9.63,0,0,1-3.18-4.68,21.17,21.17,0,0,1-1.06-5.56,8.39,8.39,0,0,1,0-2.34,13.13,13.13,0,0,1,.34,2.3,27.34,27.34,0,0,0,1.19,5.42,10.21,10.21,0,0,0,2.92,4.57C263.32,154.16,264.19,154.45,264.14,154.55Z" style="fill:#263238"></path><path d="M278.4,148.21c0,.18-3.91.55-8.23,2.63a41.52,41.52,0,0,0-7.23,4.73,8.73,8.73,0,0,1,1.79-1.84,24.59,24.59,0,0,1,5.22-3.36,24.17,24.17,0,0,1,5.9-1.92A9.46,9.46,0,0,1,278.4,148.21Z" style="fill:#263238"></path></g><g id="freepik--Spotlights--inject-56"><rect x="76.33" y="207.14" width="6.14" height="132" transform="translate(4.5 -1.27) rotate(0.94)" style="fill:#455a64"></rect><polygon points="75.25 339.08 27.68 466.91 32.97 467 81.39 339.18 75.25 339.08" style="fill:#455a64"></polygon><polygon points="81.52 339.18 124.45 466.95 119.06 466.86 75.38 339.08 81.52 339.18" style="fill:#455a64"></polygon><rect x="54.65" y="403.36" width="45.16" height="4.51" transform="translate(147.77 812.45) rotate(-179.06)" style="fill:#455a64"></rect><polygon points="106.97 138.59 130.76 147.16 142.49 130.53 129.24 113.54 106.97 138.59" style="fill:#455a64"></polygon><path d="M73.17,93.72h0a10.19,10.19,0,0,0,2.32,14.43l24.62,16.2,11.78-15.53L87.23,91.47A10.19,10.19,0,0,0,73.17,93.72Z" style="fill:#263238"></path><path d="M104.85,107.09l28.63,5.56-24.94,30.61S97.06,118,97.08,116.8Z" style="fill:#263238"></path><rect x="79.8" y="104.87" width="3.07" height="102.28" transform="translate(2.58 -1.32) rotate(0.94)" style="fill:#263238"></rect><polygon points="110.71 139.41 115.67 158.5 112.34 159.05 108.05 142.18 110.71 139.41" style="fill:#263238"></polygon><polygon points="133.48 112.65 150.78 115.72 149.23 118.61 129.44 115.37 133.48 112.65" style="fill:#263238"></polygon><path d="M99.82,124.16a14.64,14.64,0,0,0,1.87-2.18c1.1-1.4,2.56-3.37,4.15-5.56s2.89-4.07,4-5.65a17.11,17.11,0,0,0,1.58-2.4,14,14,0,0,0-1.87,2.18c-1.1,1.4-2.56,3.36-4.15,5.56s-2.89,4.06-4,5.65A17.11,17.11,0,0,0,99.82,124.16Z" style="fill:#455a64"></path><path d="M109.68,110.65a17.27,17.27,0,0,0,3,1.09c1.91.6,4.58,1.34,7.55,2s5.69,1.23,7.66,1.56a18.28,18.28,0,0,0,3.22.39A22.4,22.4,0,0,0,128,115c-1.95-.42-4.65-1-7.61-1.7s-5.63-1.39-7.57-1.89A23.3,23.3,0,0,0,109.68,110.65Z" style="fill:#455a64"></path><path d="M102.39,122.45a22.87,22.87,0,0,0,1.47,2.51c.94,1.53,2.16,3.68,3.35,6.14s2.09,4.76,2.7,6.44a23.9,23.9,0,0,0,1,2.72,12.53,12.53,0,0,0-.69-2.84,49.32,49.32,0,0,0-2.58-6.55,48.67,48.67,0,0,0-3.51-6.11A13.4,13.4,0,0,0,102.39,122.45Z" style="fill:#455a64"></path><polygon points="426.7 466.95 430.39 466.95 430.39 126.4 426.7 125.92 426.7 466.95" style="fill:#263238"></polygon><polygon points="426.51 382.68 414.3 389.4 445.59 389.4 432.31 382.68 426.51 382.68" style="fill:#455a64"></polygon><path d="M419.72,389.4c-.85,0-46.63,77.55-46.63,77.55h4.78l47.31-77.55Z" style="fill:#263238"></path><path d="M439.56,389.4c.84,0,46.62,77.55,46.62,77.55h-4.77L434.09,389.4Z" style="fill:#263238"></path><path d="M455.53,418.83a4.2,4.2,0,0,0-.57.44l-1.56,1.33-5.7,5L429,442.11l-.35.32H429l-19.08-15.55-5.8-4.66-1.6-1.25a2.76,2.76,0,0,0-.57-.4,2.9,2.9,0,0,0,.51.48l1.53,1.32,5.7,4.79,19,15.67.18.15.16-.15.36-.32L448,425.84l5.58-5.09,1.5-1.4A4.32,4.32,0,0,0,455.53,418.83Z" style="fill:#263238"></path><path d="M412.57,403.36c0,.15,7.49.26,16.73.26s16.73-.11,16.73-.26-7.49-.26-16.73-.26S412.57,403.22,412.57,403.36Z" style="fill:#263238"></path><path d="M362.52,63.28l90.79,133.26a2.07,2.07,0,0,0,2.86.54h0a2.06,2.06,0,0,0,.54-2.86L365.92,61a2,2,0,0,0-2.85-.54h0A2,2,0,0,0,362.52,63.28Z" style="fill:#263238"></path><path d="M372.47,55.93c-8.41,7-18.94,15.78-18.94,15.78L336.64,51.4l18.43-15.92a13.42,13.42,0,0,1,19,1.49h0A13.42,13.42,0,0,1,372.47,55.93Z" style="fill:#263238"></path><path d="M354.67,70.61C355.06,71.79,365,94.82,365,94.82l-.74,48.92-5.46,5.07L257.4,38.06,262.86,33l49.23,5.37L337.77,50.3Z" style="fill:#263238"></path><path d="M438.39,164.46c-.49.63-12.4,10.6-19.43-.49s7.76-17.48,7.76-17.48Z" style="fill:#455a64"></path><path d="M423.48,157.65s.17-.27.53-.68a3.48,3.48,0,0,1,1.92-1.14,3.3,3.3,0,1,1-2.16,4.85,3.49,3.49,0,0,1-.44-2.19c.07-.54.19-.83.15-.84s-.22.25-.35.81a3.51,3.51,0,0,0,.32,2.4,3.67,3.67,0,0,0,3,2,3.74,3.74,0,0,0,2.87-6.45,3.71,3.71,0,0,0-3.46-.9,3.47,3.47,0,0,0-2,1.37C423.52,157.32,423.45,157.64,423.48,157.65Z" style="fill:#263238"></path><path d="M262.56,33.27c-.1.1,22.68,24.83,50.89,55.23s51.18,55,51.28,54.88-22.67-24.83-50.89-55.24S262.67,33.17,262.56,33.27Z" style="fill:#455a64"></path><path d="M337.5,50.65a3.9,3.9,0,0,0,.61.82l1.81,2.11c1.62,1.87,3.7,4.26,6,6.9l6,6.93,1.83,2.09a4,4,0,0,0,.73.72,3.61,3.61,0,0,0-.57-.85c-.39-.53-1-1.28-1.71-2.2-1.46-1.83-3.53-4.32-5.87-7s-4.52-5.1-6.13-6.81c-.8-.85-1.46-1.54-1.93-2S337.53,50.62,337.5,50.65Z" style="fill:#455a64"></path><path d="M314.51,40.65a3.94,3.94,0,0,0,.48.56l1.45,1.52,5.35,5.54C326.3,53,332.5,59.48,339.21,66.79s12.68,14,17,18.94l5.07,5.81,1.39,1.57a3.6,3.6,0,0,0,.51.52,4.5,4.5,0,0,0-.43-.59l-1.32-1.63c-1.15-1.42-2.84-3.44-4.95-5.92-4.21-5-10.13-11.73-16.85-19s-13-13.8-17.55-18.42c-2.29-2.31-4.16-4.17-5.47-5.44l-1.51-1.45A3.94,3.94,0,0,0,314.51,40.65Z" style="fill:#455a64"></path><path d="M393.28,103.11l.21-.15c.16-.13.35-.29.6-.48a14.55,14.55,0,0,0,2-2.19A16.33,16.33,0,0,0,399,90a17.6,17.6,0,0,0-2.07-7.19,20.36,20.36,0,0,0-5.57-6.53c-2.42-1.87-5.38-3.11-8.13-4.84a15.21,15.21,0,0,1-3.73-3.16,8.54,8.54,0,0,1-1.9-4.54,7.74,7.74,0,0,1,1-4.78,6.66,6.66,0,0,1,3.75-2.85,6.09,6.09,0,0,1,4.51.31,5.67,5.67,0,0,1,2.73,3.35,5.12,5.12,0,0,1-.34,4.07,5.76,5.76,0,0,1-3.06,2.45,8.81,8.81,0,0,1-7-.78,18.79,18.79,0,0,1-7.53-7.38,19.15,19.15,0,0,1-1.24-2.64,7.46,7.46,0,0,0-.38-1,14.25,14.25,0,0,0,1.44,3.69A18.68,18.68,0,0,0,379,65.86,11.4,11.4,0,0,0,382.46,67a7.78,7.78,0,0,0,3.92-.32,6.21,6.21,0,0,0,3.3-2.63,5.55,5.55,0,0,0,.41-4.45,6.2,6.2,0,0,0-3-3.64,6.48,6.48,0,0,0-4.88-.35,7.19,7.19,0,0,0-4,3.06,8.22,8.22,0,0,0-1.11,5.1,8.83,8.83,0,0,0,.66,2.58,10.35,10.35,0,0,0,1.35,2.24A15.72,15.72,0,0,0,383,71.89c2.81,1.75,5.74,3,8.11,4.79A20.08,20.08,0,0,1,396.56,83a17.17,17.17,0,0,1,2.08,7,16.21,16.21,0,0,1-2.75,10.13A15.81,15.81,0,0,1,394,102.4l-.56.52C393.33,103,393.27,103.1,393.28,103.11Z" style="fill:#263238"></path><path d="M169.75,179.42c.13.07-6.75,12.93-15.35,28.72s-15.69,28.54-15.82,28.48,6.75-12.93,15.36-28.73S169.63,179.35,169.75,179.42Z" style="fill:#FBBF24"></path><path d="M176.57,223.67a8.1,8.1,0,0,1-.8,1.36c-.54.86-1.34,2.08-2.36,3.58-2,3-4.95,7.06-8.34,11.42s-6.61,8.19-9,10.9c-1.2,1.35-2.19,2.44-2.88,3.17a9.37,9.37,0,0,1-1.12,1.11,8,8,0,0,1,1-1.24l2.75-3.28c2.32-2.77,5.5-6.63,8.88-11s6.34-8.38,8.45-11.31c1-1.41,1.85-2.59,2.5-3.48A9.47,9.47,0,0,1,176.57,223.67Z" style="fill:#FBBF24"></path><path d="M182.31,267.26a58.52,58.52,0,0,1-6.39,4.59,59.08,59.08,0,0,1-6.68,4.16,58.52,58.52,0,0,1,6.39-4.59A59.08,59.08,0,0,1,182.31,267.26Z" style="fill:#FBBF24"></path><path d="M98.3,224.24c-8.52,6.57-7.06,23.83-4.48,36.12a127.65,127.65,0,0,0,12.08,34.47c7.7,14.35,16.27,28.59,27.65,40.81,10.89,11.68,23.8,21.26,39.3,17.39Z" style="fill:#263238"></path><path d="M131.34,449.38h0a2.21,2.21,0,0,1-2.21-2.22V316.82h4.42V447.16A2.21,2.21,0,0,1,131.34,449.38Z" style="fill:#263238"></path><polygon points="129.13 401.24 119.82 406.46 143.68 406.46 133.55 401.24 129.13 401.24" style="fill:#455a64"></polygon><path d="M124,406.47c-.65,0-35.56,60.42-35.56,60.42H92l36.08-60.42Z" style="fill:#263238"></path><path d="M139.08,406.47c.64,0,35.55,60.42,35.55,60.42H171l-36.08-60.42Z" style="fill:#263238"></path><path d="M151.26,429.4a3,3,0,0,1-.37.41l-1.14,1.1-4.24,4-14.13,13-.29.26-.16.15-.18-.15-14.46-12.22L112,432.17l-1.16-1c-.26-.24-.39-.37-.38-.39a2.11,2.11,0,0,1,.45.31l1.22,1,4.44,3.62,14.57,12.1h-.35l.28-.26,14.24-12.86,4.35-3.86,1.21-1C151.09,429.5,151.25,429.38,151.26,429.4Z" style="fill:#263238"></path><path d="M118.5,417.35c0-.15,5.71-.26,12.75-.26s12.76.11,12.76.26-5.71.26-12.76.26S118.5,417.49,118.5,417.35Z" style="fill:#263238"></path><ellipse cx="136.59" cy="288.04" rx="22.55" ry="74.51" transform="translate(-125.72 106.88) rotate(-30)" style="fill:#FBBF24"></ellipse><path d="M152.79,278.86s-.15-.22-.43-.66l-1.19-2c-1.06-1.74-2.62-4.31-4.71-7.56s-4.72-7.19-8-11.63a177.49,177.49,0,0,0-11.68-14.53,108.28,108.28,0,0,0-7.63-7.71,46.7,46.7,0,0,0-9.44-6.87,13,13,0,0,0-5.81-1.66,5.18,5.18,0,0,0-4.81,3.23A15.08,15.08,0,0,0,98,235.81a43.81,43.81,0,0,0,.56,6.71c1.49,9,4.69,18.12,8.5,27.28a252.28,252.28,0,0,0,13.78,27.51A250.36,250.36,0,0,0,137.76,323c6,7.89,12.33,15.22,19.38,21a42.14,42.14,0,0,0,5.53,3.84,15.08,15.08,0,0,0,6.06,2.18,5.21,5.21,0,0,0,5.2-2.56,13,13,0,0,0,1.46-5.86A46.49,46.49,0,0,0,174.16,330a104.92,104.92,0,0,0-2.86-10.45,177,177,0,0,0-6.74-17.39c-2.23-5-4.32-9.26-6.09-12.7s-3.21-6.08-4.19-7.86l-1.13-2c-.25-.46-.36-.7-.36-.7s2.26,3.64,5.86,10.5c1.8,3.42,3.92,7.66,6.18,12.67a177.56,177.56,0,0,1,6.82,17.39,106.85,106.85,0,0,1,2.91,10.49,47.5,47.5,0,0,1,1.26,11.72,13.39,13.39,0,0,1-1.51,6.07,5.64,5.64,0,0,1-2.36,2.23,5.93,5.93,0,0,1-1.59.52,7.76,7.76,0,0,1-1.67,0,15.59,15.59,0,0,1-6.25-2.22,43,43,0,0,1-5.6-3.87c-7.12-5.83-13.43-13.18-19.49-21.08A259.12,259.12,0,0,1,106.57,270c-3.81-9.19-7-18.33-8.5-27.41a42.09,42.09,0,0,1-.56-6.78,15.45,15.45,0,0,1,1.21-6.53,8,8,0,0,1,.86-1.43,6,6,0,0,1,1.24-1.12,5.7,5.7,0,0,1,3.12-.93,13.52,13.52,0,0,1,6,1.73,46.6,46.6,0,0,1,9.52,7,102.6,102.6,0,0,1,7.63,7.75,176.39,176.39,0,0,1,11.65,14.61c3.21,4.46,5.82,8.42,7.89,11.69C150.76,275.09,152.79,278.86,152.79,278.86Z" style="fill:#263238"></path><path d="M147.5,196.92l3.9,1.08-2.88.7c-1.47.24-2.13.87-2.4,1.69l-.89,7.24-1.11-7.25a2.57,2.57,0,0,0-1.52-1.47l-3.73-.91,3.94-1.12a2.57,2.57,0,0,0,1.43-1.46l1-8.21.7,8A2.56,2.56,0,0,0,147.5,196.92Z" style="fill:#FBBF24"></path><path d="M127.62,215l2.8.77-2.07.5a1.89,1.89,0,0,0-1.72,1.21l-.64,5.2-.79-5.21a1.85,1.85,0,0,0-1.09-1.05l-2.68-.65,2.83-.81a1.87,1.87,0,0,0,1-1L126,208l.51,5.76A1.87,1.87,0,0,0,127.62,215Z" style="fill:#FBBF24"></path></g></svg>