<svg xmlns="http://www.w3.org/2000/svg" viewBox="0 0 500 500"><g id="freepik--background-complete--inject-5"><rect y="382.4" width="500" height="0.25" style="fill:#ebebeb"></rect><rect x="416.78" y="398.49" width="33.12" height="0.25" style="fill:#ebebeb"></rect><rect x="316.95" y="395.11" width="57.98" height="0.25" style="fill:#ebebeb"></rect><rect x="361.67" y="389.21" width="54.11" height="0.25" style="fill:#ebebeb"></rect><rect x="52.46" y="390.89" width="14.91" height="0.25" style="fill:#ebebeb"></rect><rect x="76.27" y="390.89" width="64.4" height="0.25" style="fill:#ebebeb"></rect><rect x="182" y="395.11" width="43.15" height="0.25" style="fill:#ebebeb"></rect><path d="M237,337.8H43.91a5.71,5.71,0,0,1-5.7-5.71V60.66A5.71,5.71,0,0,1,43.91,55H237a5.71,5.71,0,0,1,5.71,5.71V332.09A5.71,5.71,0,0,1,237,337.8ZM43.91,55.2a5.46,5.46,0,0,0-5.45,5.46V332.09a5.46,5.46,0,0,0,5.45,5.46H237a5.47,5.47,0,0,0,5.46-5.46V60.66A5.47,5.47,0,0,0,237,55.2Z" style="fill:#ebebeb"></path><path d="M453.31,337.8H260.21a5.72,5.72,0,0,1-5.71-5.71V60.66A5.72,5.72,0,0,1,260.21,55h193.1A5.71,5.71,0,0,1,459,60.66V332.09A5.71,5.71,0,0,1,453.31,337.8ZM260.21,55.2a5.47,5.47,0,0,0-5.46,5.46V332.09a5.47,5.47,0,0,0,5.46,5.46h193.1a5.47,5.47,0,0,0,5.46-5.46V60.66a5.47,5.47,0,0,0-5.46-5.46Z" style="fill:#ebebeb"></path><path d="M418.36,183.18a10.43,10.43,0,1,0,0-20.85h-1.28v20.85Z" style="fill:#e0e0e0"></path><circle cx="417.08" cy="172.75" r="10.43" style="fill:#f5f5f5"></circle><path d="M416,174.72a21,21,0,0,1-21-21V124.07a2,2,0,0,1,3.94,0v29.67a17.05,17.05,0,0,0,17,17,2,2,0,0,1,0,3.94Z" style="fill:#e0e0e0"></path><path d="M384.74,143.46h24.57c1.63,0,2.89-2.27,2.65-4.81l-2.11-23c-.51-5.48-3.49-9.55-7-9.55H391.22c-3.52,0-6.51,4.07-7,9.55l-2.12,23C381.86,141.19,383.11,143.46,384.74,143.46Z" style="fill:#f5f5f5"></path><rect x="70.89" y="102.34" width="135.7" height="250.8" transform="translate(277.47 455.47) rotate(180)" style="fill:#e6e6e6"></rect><rect x="67.87" y="102.34" width="135.7" height="250.8" transform="translate(271.44 455.47) rotate(180)" style="fill:#f5f5f5"></rect><rect x="16.4" y="165.3" width="238.64" height="124.87" transform="translate(363.46 92.02) rotate(90)" style="fill:#fff"></rect><rect x="-44.9" y="226.6" width="238.64" height="2.28" transform="translate(302.16 153.31) rotate(90)" style="fill:#e6e6e6"></rect><rect x="70.11" y="167.94" width="131.22" height="8.16" transform="translate(271.44 344.05) rotate(180)" style="fill:#f5f5f5"></rect><path d="M62,92.27H212.49a.84.84,0,0,1,.83.83h0a.84.84,0,0,1-.83.84H62a.84.84,0,0,1-.83-.84h0A.83.83,0,0,1,62,92.27Z" style="fill:#e6e6e6"></path><path d="M57,93.1a4.17,4.17,0,1,0,4.17-4.16A4.16,4.16,0,0,0,57,93.1Z" style="fill:#e6e6e6"></path><path d="M205.46,97.77h0a1.12,1.12,0,0,0,1.12-1.12V94.23a1.13,1.13,0,0,0-1.12-1.13h0a1.14,1.14,0,0,0-1.13,1.13v2.42A1.13,1.13,0,0,0,205.46,97.77Z" style="fill:#e6e6e6"></path><path d="M74.54,97.77h0a1.12,1.12,0,0,0,1.12-1.12V94.23a1.13,1.13,0,0,0-1.12-1.13h0a1.14,1.14,0,0,0-1.13,1.13v2.42A1.13,1.13,0,0,0,74.54,97.77Z" style="fill:#e6e6e6"></path><rect x="62.24" y="93.1" width="139.1" height="239.16" transform="translate(263.57 425.37) rotate(180)" style="fill:#e0e0e0;opacity:0.5"></rect><path d="M187.89,93.1a4.17,4.17,0,1,0,4.17-4.16A4.17,4.17,0,0,0,187.89,93.1Z" style="fill:#e6e6e6"></path><rect x="404.2" y="250.79" width="30.24" height="124.71" transform="translate(838.64 626.28) rotate(180)" style="fill:#f0f0f0"></rect><rect x="229.28" y="375.49" width="199.35" height="6.79" transform="translate(657.92 757.78) rotate(180)" style="fill:#f0f0f0"></rect><rect x="223.48" y="250.79" width="180.72" height="124.71" style="fill:#f5f5f5"></rect><path d="M392.83,328h-158V298.25h158Zm-156.94-1h155.9v-27.7H235.89Z" style="fill:#f0f0f0"></path><path d="M392.83,363.19h-158V333.4h158Zm-156.94-1h155.9V334.44H235.89Z" style="fill:#f0f0f0"></path><path d="M276.21,303.59h75.25a2.42,2.42,0,0,0,2.41-2.41h0a2.41,2.41,0,0,0-2.41-2.41H276.21a2.42,2.42,0,0,0-2.41,2.41h0A2.42,2.42,0,0,0,276.21,303.59Z" style="fill:#ebebeb"></path><path d="M392.83,292.88h-158V263.09h158Zm-156.94-1.05h155.9v-27.7H235.89Z" style="fill:#f0f0f0"></path><path d="M276.21,268.43h75.25a2.41,2.41,0,0,0,2.41-2.41h0a2.42,2.42,0,0,0-2.41-2.41H276.21A2.42,2.42,0,0,0,273.8,266h0A2.42,2.42,0,0,0,276.21,268.43Z" style="fill:#ebebeb"></path><path d="M276.21,338.74h75.25a2.41,2.41,0,0,0,2.41-2.41h0a2.42,2.42,0,0,0-2.41-2.41H276.21a2.42,2.42,0,0,0-2.41,2.41h0A2.42,2.42,0,0,0,276.21,338.74Z" style="fill:#ebebeb"></path><rect x="219.45" y="244.23" width="184.75" height="6.56" transform="translate(623.64 495.01) rotate(180)" style="fill:#f0f0f0"></rect><rect x="404.2" y="244.23" width="34.47" height="6.56" style="fill:#e6e6e6"></rect><rect x="275.72" y="100.8" width="87.34" height="99.09" transform="translate(638.78 300.68) rotate(180)" style="fill:#f0f0f0"></rect><rect x="268.58" y="100.8" width="93.21" height="99.09" transform="translate(630.36 300.68) rotate(180)" style="fill:#f5f5f5"></rect><rect x="273.44" y="111.55" width="83.47" height="77.59" transform="translate(465.52 -164.84) rotate(90)" style="fill:#fff"></rect><rect x="293.68" y="130.35" width="43.01" height="39.98" rx="7.69" transform="translate(465.52 -164.84) rotate(90)" style="fill:#f5f5f5"></rect></g><g id="freepik--Shadow--inject-5"><ellipse id="freepik--path--inject-5" cx="250" cy="416.24" rx="193.89" ry="11.32" style="fill:#f5f5f5"></ellipse></g><g id="freepik--Character--inject-5"><path d="M210,161.79h-11a1.53,1.53,0,0,1-1.48-1.34l-2.2-20.22a1.18,1.18,0,0,1,1.19-1.34h11a1.53,1.53,0,0,1,1.48,1.34l2.2,20.22A1.18,1.18,0,0,1,210,161.79Z" style="fill:#F490B6"></path><path d="M243.64,111.65c5.16-3.05,11.72-5.36,13.88-8.17s13.16-1.73,17.35,1.87,1.95,13.51,3.55,17.29-2,6.75-2,6.75Z" style="fill:#263238"></path><path d="M250.9,115.42c-10.25,5.35-10.35,26.34-4.26,38.54s23.1,14.71,26.93,9.54-4.25-19.58-1.25-31.42S260.31,110.5,250.9,115.42Z" style="fill:#F490B6"></path><path d="M198.3,162.4l-3.93-5,8.83-1.62s4.87,5.52,1.15,9h-1.17A6.24,6.24,0,0,1,198.3,162.4Z" style="fill:#b55b52"></path><path d="M197,150.22l2.32-.14a3,3,0,0,1,3.09,2.32l.78,3.41-8.83,1.62-.15-4.12A3,3,0,0,1,197,150.22Z" style="fill:#b55b52"></path><path d="M244.58,166.33c-.78,1.28-1.48,2.33-2.24,3.47s-1.51,2.22-2.29,3.31c-1.58,2.17-3.22,4.32-5,6.41a60.68,60.68,0,0,1-5.93,6.12,35.32,35.32,0,0,1-3.7,2.86,25.51,25.51,0,0,1-2.22,1.31l-.3.15c-.12.06-.12.07-.42.21a9,9,0,0,1-4.5.8,10.19,10.19,0,0,1-4.32-1.39,15.93,15.93,0,0,1-2.54-1.83,27.47,27.47,0,0,1-3.31-3.6,59.75,59.75,0,0,1-4.62-7,137.47,137.47,0,0,1-7-14.28l10.08-4.41a125.81,125.81,0,0,0,6.93,12.66,49.42,49.42,0,0,0,3.95,5.47,14.53,14.53,0,0,0,1.9,1.89,2.32,2.32,0,0,0,.55.36c.06,0-.09-.13-.74-.21a3.46,3.46,0,0,0-1.16.1,4.38,4.38,0,0,0-.58.2c-.15.08,0,0,0,0l.12-.07a11.21,11.21,0,0,0,1-.68,22.6,22.6,0,0,0,2.19-1.91,48.45,48.45,0,0,0,4.35-5c1.4-1.83,2.74-3.78,4-5.77.64-1,1.27-2,1.87-3s1.23-2.09,1.72-3Z" style="fill:#263238"></path><path d="M286.7,134.71c-10.93,1.22-22.94-3.21-32.27-4.78S240.2,125,233.1,118.85c-9.71-8.46-.74-16.22,9.82-13.42,7.65,2,12.89,4.68,24.66,7.22s11.2,5.55,16.05,8.95C290.84,126.65,299.54,133.28,286.7,134.71Z" style="fill:#e0e0e0"></path><path d="M262.15,388.84s3.76,1,4.16,6.57-1.16,17.67-1.16,17.67h-1.4s.4-10.69-.15-13.18c-.43,7.23-5.61,13.18-12.47,13.18-2.43,0,2.87-7.9,3.73-14.62s1.36-10.3,1.36-10.3Z" style="fill:#F490B6"></path><path d="M256.41,384.49l8.41.47c-1.38,10.29-5.64,17.8-9.16,20.91a1.43,1.43,0,0,1-2.26-1.42A108.33,108.33,0,0,0,256.41,384.49Z" style="fill:#b55b52"></path><path d="M215.27,389.38s2.88.48,2.23,6-4.08,17.67-4.08,17.67H212s1.79-11.69,1.71-14.18c-1.81,7.23-4.08,14.18-15.37,14.18-2.43,0,5-7.9,7.1-14.62s2.86-9.08,2.86-9.08Z" style="fill:#F490B6"></path><path d="M209.46,382l8.22,2.48c-2.92,9.25-9.31,18.26-13.42,21.37-1.1.83-1.89,0-1.41-1.26A147.83,147.83,0,0,0,209.46,382Z" style="fill:#b55b52"></path><path d="M234.24,203.08s-2.06,9.89-1.06,28.56c-2.81,16.61-10.34,50.95-11.41,68-4.46,27.54-13.1,84-13.1,84,1.54,1.28,5.92,1.61,9.38,1.12,0,0,20-37.66,20.86-82.34,22.71-53.48,24.53-98.76,24.53-98.76Z" style="fill:#F490B6"></path><path d="M247.12,233.41s-1.63,32.16-2.51,54.66a336.05,336.05,0,0,0,14.58-52.46Z" style="opacity:0.2"></path><path d="M242.92,203.67s6.4,72.53,9.2,98.14c2.93,26.89,4.53,74.81,3.87,83.3,2.5,1.18,6.16,1.15,9.25,1,0,0,13.31-49.27,5.47-83.11,4.9-33.65,5.91-57.53,4.78-72.75-1.43-19.21-5.87-25.14-5.87-25.14Z" style="fill:#F490B6"></path><path d="M233.3,207.17l-.47,2.27s1,2.31,11.31,2.94,26.06-3.74,27.44-4.46c.49-.9-.57-2.55-.57-2.55s-10.61,4.59-26.35,4.57A27.11,27.11,0,0,1,233.3,207.17Z" style="fill:#F490B6"></path><path d="M233.3,207.17l-.47,2.27s1,2.31,11.31,2.94,26.06-3.74,27.44-4.46c.49-.9-.57-2.55-.57-2.55s-10.61,4.59-26.35,4.57A27.11,27.11,0,0,1,233.3,207.17Z" style="fill:#fff;opacity:0.5"></path><path d="M231.21,166.63c-.18,8.16-6.79,12.44.43,18.72-.49,7.06-.48,17.73,2.39,20.59,2.16,3.12,18.52,2.87,35.59-.83-2-9.84-.8-15.34,5.52-37.28a8.92,8.92,0,0,0-7-11.25c-1.4-.25-2.87-.48-4.39-.66a112.76,112.76,0,0,0-16-1.2c-1.74,0-3.54.12-5.26.23A12.06,12.06,0,0,0,231.21,166.63Z" style="fill:#fff"></path><path d="M263.5,137.82c-1.39,5.06-3.1,14.4.24,18.1a39.2,39.2,0,0,0-15.11,6.3,3.11,3.11,0,0,1-4.44-4.23,10.9,10.9,0,0,1,3.58-3.27c5.83-.94,6-5.2,5.3-9.27Z" style="fill:#b55b52"></path><path d="M248.18,154.91c-2.3,3.87.28,10.09.28,10.09s-13,21.49-12.83,47.06c-5.47-3.23-8.18-7.12-9.13-17.13-.69-7.26,3.32-33.68,6.41-36.43,2.32-2.07,10.58-3.91,14.5-4.69A.74.74,0,0,1,248.18,154.91Z" style="fill:#263238"></path><path d="M260.34,154.28c-12.09,5.7-17.42,12.16-17.42,12.16s9.83,33.89,9,46.78c15.69-4.22,21.58-8.66,21.58-8.66s-.33-21.56,1.34-27.34c.78-2.7,1.8-6.8,2.67-10.39a10,10,0,0,0-5.87-11.61,43.84,43.84,0,0,0-4.18-1.52A9.86,9.86,0,0,0,260.34,154.28Z" style="fill:#263238"></path><path d="M259.25,140.93l-6.17,4.52a16.6,16.6,0,0,1,.28,2.87c2.21-.15,5.4-2.33,5.8-4.6A7.71,7.71,0,0,0,259.25,140.93Z" style="opacity:0.2"></path><path d="M258.3,112.5c-9.16-1.1-18.23,8.55-17.48,22.07s-7.66,21.26-.91,32.68c.75-4.58,9.73-9.21,9.28-17.58s-3.28-20.63,3.47-24.94S264.52,113.25,258.3,112.5Z" style="fill:#F490B6"></path><path d="M233.57,159.63c-1.34,0-2.57-1-3.43-2.92a.25.25,0,1,1,.46-.2c.86,1.9,2.11,2.84,3.41,2.58,1.88-.38,3.85-3.24,4-8a97.58,97.58,0,0,1,3.77-24.83.25.25,0,0,1,.31-.16.24.24,0,0,1,.16.31,97,97,0,0,0-3.74,24.69c-.15,5-2.32,8-4.39,8.45A2.47,2.47,0,0,1,233.57,159.63Z" style="fill:#F490B6"></path><path d="M269.63,128.8c-2.63,8.2-3.57,11.73-8.79,15-7.86,4.85-17.16-.14-17-9,.16-7.94,4.44-20,13.28-21.3S272.26,120.59,269.63,128.8Z" style="fill:#b55b52"></path><path d="M247.06,118.58l-.43,0a.24.24,0,0,1-.23-.27.25.25,0,0,1,.26-.23,10,10,0,0,0,6.61-2.38,1.25,1.25,0,0,0,.45-.9.25.25,0,0,1,.21-.28.26.26,0,0,1,.28.22,1.67,1.67,0,0,1-.57,1.3A10.68,10.68,0,0,1,247.06,118.58Z" style="fill:#F490B6"></path><path d="M260.28,128a4.4,4.4,0,1,1-3.74-5.15A4.5,4.5,0,0,1,260.28,128Z" style="fill:#263238"></path><path d="M250.33,126.14a4.2,4.2,0,1,1-3.1-5.39A4.39,4.39,0,0,1,250.33,126.14Z" style="fill:#263238"></path><path d="M252.13,127a.22.22,0,0,1-.17-.07s-1.15-1.1-2-.49a.25.25,0,0,1-.35-.06.25.25,0,0,1,.06-.35c1.18-.86,2.57.49,2.63.54a.26.26,0,0,1,0,.36A.26.26,0,0,1,252.13,127Z" style="fill:#fff"></path><path d="M267.66,131.69a.2.2,0,0,1-.11,0c-5.62-2.84-7.57-2.89-7.59-2.89a.25.25,0,0,1-.25-.25.26.26,0,0,1,.25-.25c.08,0,2.05,0,7.81,2.94a.26.26,0,0,1,.11.34A.25.25,0,0,1,267.66,131.69Z" style="fill:#fff"></path><path d="M248.46,134.62a63.86,63.86,0,0,1,9.84.35c-1,1.69-2.75,3-6.44,2.65S248.46,134.62,248.46,134.62Z" style="fill:#fff"></path><path d="M256.83,127.94c-.17.68-.67,1.14-1.11,1s-.67-.76-.49-1.44.67-1.13,1.11-1S257,127.27,256.83,127.94Z" style="fill:#263238"></path><path d="M248.46,125.93c-.18.68-.68,1.14-1.12,1s-.66-.76-.49-1.44.67-1.13,1.12-1S248.63,125.25,248.46,125.93Z" style="fill:#263238"></path><path d="M248.15,124.59l-1.51-.89S247.16,125.19,248.15,124.59Z" style="fill:#263238"></path><path d="M250.62,127.27A18.4,18.4,0,0,1,247.1,131a3,3,0,0,0,2.3,1.07Z" style="fill:#a02724"></path><path d="M270.59,135.25a5.67,5.67,0,0,1-4,2.35c-2,.14-2.55-2.18-1.56-4.21.89-1.83,3-4.1,4.86-3.28S271.88,133.54,270.59,135.25Z" style="fill:#b55b52"></path><path d="M260.18,123.54a.48.48,0,0,1-.21-.25,3.31,3.31,0,0,0-2-2.19.41.41,0,0,1-.29-.5.42.42,0,0,1,.51-.29,4.08,4.08,0,0,1,2.58,2.74.42.42,0,0,1-.27.51A.46.46,0,0,1,260.18,123.54Z" style="fill:#263238"></path><path d="M249.5,120a.45.45,0,0,1,.22.21.43.43,0,0,1-.2.55,4.12,4.12,0,0,1-3.76-.1.41.41,0,0,1,.44-.7,3.25,3.25,0,0,0,3,0A.42.42,0,0,1,249.5,120Z" style="fill:#263238"></path><path d="M256.53,126.6l-1.51-.89S255.53,127.2,256.53,126.6Z" style="fill:#263238"></path><path d="M272.74,228.56l-2.18,7.36,8.79,0s.29-5.67-2-9.2l-1.12-.41C274.32,226.5,273.59,226.85,272.74,228.56Z" style="fill:#b55b52"></path><path d="M273.85,240.86l3.77-.53a2.18,2.18,0,0,0,1.86-2.3l-.13-2.14-8.79,0,.87,3.34A2.17,2.17,0,0,0,273.85,240.86Z" style="fill:#b55b52"></path><path d="M276.42,159.67c.52.83.88,1.46,1.29,2.18l1.14,2.1c.75,1.41,1.46,2.82,2.13,4.26a87.1,87.1,0,0,1,3.64,8.89,59.73,59.73,0,0,1,2.5,9.62,39.59,39.59,0,0,1,.56,5.2,37.37,37.37,0,0,1-.18,5.27c-.65,6.32-1.69,12.13-2.74,18.05s-2.22,11.7-3.45,17.57l-10.8-2.06c1-5.76,1.87-11.59,2.69-17.38s1.58-11.64,1.91-17.11a22.43,22.43,0,0,0,0-3.59,27.75,27.75,0,0,0-.56-3.59,48.82,48.82,0,0,0-2.31-7.44,75.26,75.26,0,0,0-3.42-7.38c-.64-1.21-1.31-2.41-2-3.59l-1.06-1.74c-.34-.55-.75-1.19-1-1.6Z" style="fill:#263238"></path><path d="M245.79,213.06h-.07l-4-.14a1.93,1.93,0,0,1-1.87-2,2,2,0,0,1,2-1.86l4,.14a1.93,1.93,0,0,1-.06,3.85Zm0-.95a1,1,0,0,0,1-.94,1,1,0,0,0-.27-.7.94.94,0,0,0-.68-.31l-4-.14a1,1,0,0,0-1,.94,1,1,0,0,0,.95,1Z" style="fill:#fff"></path><path d="M245.24,234.5a.27.27,0,0,1-.15-.05,8.81,8.81,0,0,1-3.35-6.93V212.46a.25.25,0,0,1,.5,0v15.06a8.31,8.31,0,0,0,2.75,6.19V219.5a.25.25,0,0,1,.5,0v14.75a.25.25,0,0,1-.14.23Z" style="fill:#fff;opacity:0.5"></path><path d="M262.8,386.43h0a.25.25,0,0,1-.21-.29c3.62-21.28,5.91-56.64,2.39-84a.09.09,0,0,1,0-.07c4.38-24.69,4.75-73,4-80.28a15.69,15.69,0,0,1-12.33-7.34.25.25,0,0,1,.1-.34.25.25,0,0,1,.34.11,15.23,15.23,0,0,0,12.13,7.09.26.26,0,0,1,.23.21c.81,6.51.48,55.62-3.94,80.6,3.52,27.4,1.23,62.8-2.4,84.11A.24.24,0,0,1,262.8,386.43Z" style="fill:#fff;opacity:0.5"></path><path d="M262.25,118.79c3.33,10.34-8.6,31-6.22,48.79,4-5.58,12.74-7.25,12.43-14.91-.51-13,6.43-14.81,5.57-25-.75-8.89-5-12.41-12.46-14.28S255,118.22,262.25,118.79Z" style="fill:#F490B6"></path><path d="M263.3,120.14h0c-5.11-.15-8.59-2.31-9.4-4.37a2.58,2.58,0,0,1,.69-2.9.24.24,0,0,1,.35,0,.26.26,0,0,1,0,.36,2.06,2.06,0,0,0-.57,2.36c.75,1.9,4.06,3.91,8.94,4a.24.24,0,0,1,.24.25A.25.25,0,0,1,263.3,120.14Z" style="fill:#F490B6"></path><path d="M272.58,152.81l-.09,0a.25.25,0,0,1-.15-.32c2.12-5.63,2.48-14.6,1-25.94a.25.25,0,0,1,.22-.28.25.25,0,0,1,.28.22c1.47,11.58,1.11,20.39-1.07,26.17A.26.26,0,0,1,272.58,152.81Z" style="fill:#F490B6"></path><path d="M249.57,111.61c-6.22,1.1-1.11,3.89-1.11,3.89s3.78-1.94,11.84,0a28.93,28.93,0,0,1,12.36,6s3.63-.92,2-4S262.13,109.39,249.57,111.61Z" style="fill:#e0e0e0"></path></g><g id="freepik--Post--inject-5"><path d="M354.76,298.39h-.1c-5.39-.54-10.28-3.5-14.5-8.8-17.36-21.74-20.44-78.27-17.28-103.8a.91.91,0,0,1,1-.8.92.92,0,0,1,.8,1c-3,24.56.09,81.39,16.89,102.44,3.91,4.89,8.37,7.62,13.26,8.12a.92.92,0,0,1-.09,1.83Z" style="fill:#F490B6"></path><path d="M323.75,185.85c4.64-7.06,3.56-17.06.9-21.12C316.45,177.08,323.75,185.85,323.75,185.85Z" style="fill:#F490B6"></path><path d="M323.75,186.77a.9.9,0,0,1-.7-.33c-.08-.1-7.64-9.44.84-22.22a.9.9,0,0,1,.76-.41.94.94,0,0,1,.77.41c2.78,4.25,4.07,14.57-.9,22.13a.9.9,0,0,1-.71.41Zm.84-20.22c-5,8.6-2.37,15.09-.89,17.59A21.73,21.73,0,0,0,324.59,166.55Z" style="fill:#F490B6"></path><path d="M322.73,201.88c.3-8.12-6-16.68-10.57-19.31C311.55,196.8,322.73,201.88,322.73,201.88Z" style="fill:#F490B6"></path><path d="M322.73,202.8a.85.85,0,0,1-.38-.09c-.12-.05-11.73-5.5-11.1-20.18a.89.89,0,0,1,.47-.76.88.88,0,0,1,.9,0c4.71,2.72,11.35,11.46,11,20.13a.93.93,0,0,1-.92.89Zm-9.67-18.51a19.24,19.24,0,0,0,8.73,16C321.35,193.86,316.94,187.32,313.06,184.29Z" style="fill:#F490B6"></path><path d="M323.45,205.88c1.19-8,9-15.5,14-17.39C335.4,202.61,323.45,205.88,323.45,205.88Z" style="fill:#F490B6"></path><path d="M323.45,206.8a.93.93,0,0,1-.61-.23.94.94,0,0,1-.3-.82c1.28-8.59,9.42-16.16,14.56-18.12a.9.9,0,0,1,.89.15.89.89,0,0,1,.34.84,21.94,21.94,0,0,1-14.64,18.15Zm12.76-16.73c-4.37,2.39-9.91,8.14-11.53,14.39A19.79,19.79,0,0,0,336.21,190.07Z" style="fill:#F490B6"></path><path d="M323.66,221.86c1.2-8,9-15.5,14-17.39C335.61,218.59,323.66,221.86,323.66,221.86Z" style="fill:#F490B6"></path><path d="M323.66,222.78a.92.92,0,0,1-.9-1.05c1.27-8.59,9.41-16.16,14.55-18.12a.94.94,0,0,1,.9.14.93.93,0,0,1,.33.85,22,22,0,0,1-14.63,18.15A1,1,0,0,1,323.66,222.78Zm12.76-16.73c-4.37,2.39-9.91,8.14-11.53,14.39A19.77,19.77,0,0,0,336.42,206.05Z" style="fill:#F490B6"></path><path d="M324.36,235.6c1.2-8,9-15.5,14-17.39C336.31,232.33,324.36,235.6,324.36,235.6Z" style="fill:#F490B6"></path><path d="M324.36,236.52a.9.9,0,0,1-.6-.23.88.88,0,0,1-.3-.82c1.27-8.58,9.41-16.16,14.55-18.12a.92.92,0,0,1,.9.15.9.9,0,0,1,.33.84,21.93,21.93,0,0,1-14.63,18.15A1,1,0,0,1,324.36,236.52Zm12.76-16.73c-4.37,2.39-9.91,8.14-11.53,14.39A19.75,19.75,0,0,0,337.12,219.79Z" style="fill:#F490B6"></path><path d="M327.32,250.17c1.19-8,9-15.51,14-17.4C339.27,246.89,327.32,250.17,327.32,250.17Z" style="fill:#F490B6"></path><path d="M327.32,251.08a.92.92,0,0,1-.91-1.05c1.28-8.58,9.41-16.16,14.55-18.11a.89.89,0,0,1,.9.14.91.91,0,0,1,.34.84,21.92,21.92,0,0,1-14.64,18.15Zm12.76-16.73c-4.37,2.39-9.91,8.14-11.53,14.39A19.75,19.75,0,0,0,340.08,234.35Z" style="fill:#F490B6"></path><path d="M329.79,264.67c.69-8.09,8-15.89,12.86-18C341.51,260.88,329.79,264.67,329.79,264.67Z" style="fill:#F490B6"></path><path d="M329.79,265.59a1,1,0,0,1-.58-.2.9.9,0,0,1-.34-.79c.74-8.64,8.4-16.58,13.41-18.76a.91.91,0,0,1,.9.09.92.92,0,0,1,.38.82,21.45,21.45,0,0,1-13.49,18.8A.9.9,0,0,1,329.79,265.59Zm11.75-17.29c-4.22,2.57-9.4,8.58-10.62,14.91A19.32,19.32,0,0,0,341.54,248.3Z" style="fill:#F490B6"></path><path d="M335.48,278.76c-1.21-8.08,4.14-17,8.37-19.83C346.05,273.08,335.48,278.76,335.48,278.76Z" style="fill:#F490B6"></path><path d="M335.48,279.67a1,1,0,0,1-.41-.09.94.94,0,0,1-.5-.69c-1.29-8.64,4.36-17.74,8.77-20.72a.91.91,0,0,1,1.42.61c2.27,14.63-8.73,20.72-8.85,20.78A.81.81,0,0,1,335.48,279.67Zm7.66-19c-3.53,3.23-7.22,10-6.9,16.5C338.71,275.33,344,270.24,343.14,260.66Z" style="fill:#F490B6"></path><path d="M322.66,214.68c-2-8-10.61-15-15.76-16.64A22.4,22.4,0,0,0,322.66,214.68Z" style="fill:#F490B6"></path><path d="M322.66,215.6l-.19,0A23.56,23.56,0,0,1,306,198.26a.92.92,0,0,1,1.17-1.1c5.32,1.69,14.21,8.82,16.37,17.29a.92.92,0,0,1-.22.87A1,1,0,0,1,322.66,215.6Zm-14.36-16a21.38,21.38,0,0,0,13,13.71C319,207.19,312.9,201.77,308.3,199.59Z" style="fill:#F490B6"></path><path d="M322.62,230.16c-1-8.09-8.72-15.84-13.65-17.91A21.37,21.37,0,0,0,322.62,230.16Z" style="fill:#F490B6"></path><path d="M322.62,231.07a.84.84,0,0,1-.27,0,22.47,22.47,0,0,1-14.29-18.67.93.93,0,0,1,1.27-1c5.1,2.15,13.09,10,14.2,18.64a.91.91,0,0,1-.32.82A.89.89,0,0,1,322.62,231.07Zm-12.46-17.19a20.31,20.31,0,0,0,11.26,14.8C319.9,222.38,314.49,216.44,310.16,213.88Z" style="fill:#F490B6"></path><path d="M324.69,242.87c-3.34-7.66-13-13.64-18.34-14.65A23.87,23.87,0,0,0,324.69,242.87Z" style="fill:#F490B6"></path><path d="M324.69,243.79h-.09c-.54-.05-13.17-1.4-19.1-15.2a.94.94,0,0,1,.13-.94.91.91,0,0,1,.89-.32c5.52,1,15.46,7.05,19,15.18a.93.93,0,0,1-.1.91A.91.91,0,0,1,324.69,243.79ZM308,229.61a22.86,22.86,0,0,0,15,12C319.76,235.88,312.92,231.25,308,229.61Z" style="fill:#F490B6"></path><path d="M327.81,259.18c-4.61-7.19-15.16-11.94-20.63-12.29C315.2,259.53,327.81,259.18,327.81,259.18Z" style="fill:#F490B6"></path><path d="M327.67,260.1c-1.62,0-13.47-.43-21.26-12.72a.92.92,0,0,1,0-1,1,1,0,0,1,.85-.45c5.62.36,16.46,5.1,21.34,12.71a.92.92,0,0,1-.75,1.42Zm-18.55-12a24.82,24.82,0,0,0,16.8,10C321.7,252.87,314.22,249.14,309.12,248.09Z" style="fill:#F490B6"></path><path d="M332.19,272.92c-5.69-6.62-16.89-10.15-22.35-9.88C319.78,274.68,332.19,272.92,332.19,272.92Z" style="fill:#F490B6"></path><path d="M330.27,273.94c-4,0-13.29-1.12-21.12-10.3a.91.91,0,0,1-.15-1,.94.94,0,0,1,.8-.56c5.6-.27,17.06,3.2,23.09,10.2a.91.91,0,0,1,.16.92.94.94,0,0,1-.73.59A17.71,17.71,0,0,1,330.27,273.94ZM312,264a26,26,0,0,0,18.15,8.07C325.13,267.37,317.2,264.51,312,264Z" style="fill:#F490B6"></path><path d="M338.1,285.31c-7.26-5.43-19.06-6.82-24.3-5.55C326.48,289.33,338.1,285.31,338.1,285.31Z" style="fill:#F490B6"></path><path d="M331.8,287.09a30.57,30.57,0,0,1-18.55-6.59.92.92,0,0,1,.33-1.63c5.39-1.3,17.41,0,25.07,5.71a.92.92,0,0,1,.36.87.93.93,0,0,1-.61.73A21.91,21.91,0,0,1,331.8,287.09Zm-15.62-6.77c8.45,5.56,16.17,5.17,19.66,4.57A35.9,35.9,0,0,0,316.18,280.32Z" style="fill:#F490B6"></path><path d="M320.22,60.58,156,73.69a24.64,24.64,0,0,0-22.58,26.49L152.8,343.29a24.64,24.64,0,0,0,26.49,22.58l164.25-13.11a24.64,24.64,0,0,0,22.58-26.49L346.72,83.15A24.64,24.64,0,0,0,320.22,60.58ZM156.77,83.65,321,70.54A14.62,14.62,0,0,1,336.75,84l16,200.08A11.67,11.67,0,0,1,342,296.59L171.89,310.17a11.67,11.67,0,0,1-12.56-10.7l-16-200.09A14.62,14.62,0,0,1,156.77,83.65Z" style="fill:#F490B6"></path><path d="M320.22,60.58,156,73.69a24.64,24.64,0,0,0-22.58,26.49L152.8,343.29a24.64,24.64,0,0,0,26.49,22.58l164.25-13.11a24.64,24.64,0,0,0,22.58-26.49L346.72,83.15A24.64,24.64,0,0,0,320.22,60.58ZM156.77,83.65,321,70.54A14.62,14.62,0,0,1,336.75,84l16,200.08A11.67,11.67,0,0,1,342,296.59L171.89,310.17a11.67,11.67,0,0,1-12.56-10.7l-16-200.09A14.62,14.62,0,0,1,156.77,83.65Z" style="fill:#fff;opacity:0.7000000000000001"></path><path d="M191.93,327.14a6,6,0,0,0-8.5.68A6,6,0,1,0,175.6,337l9.18,7.83,7.83-9.18A6,6,0,0,0,191.93,327.14Z" style="fill:#fff"></path><path d="M225.58,336.84a9.27,9.27,0,0,0,.89-4.78,9.41,9.41,0,1,0-8.63,10.13,9.3,9.3,0,0,0,4.58-1.63l4.8.88Z" style="fill:#fff"></path><path d="M138.26,148.35l-.16,0a.74.74,0,0,1-.56-.89c4.52-20.33,22.2-62.61,41.34-74.49,4.66-2.89,9.19-3.83,13.46-2.78a.75.75,0,0,1-.36,1.45c-3.86-1-8-.08-12.32,2.59-18.52,11.5-36.32,54-40.67,73.55A.76.76,0,0,1,138.26,148.35Z" style="fill:#F490B6"></path><path d="M138.23,147.62c1.62,6.65-1.92,14-5,16.36C130.28,152.33,138.23,147.62,138.23,147.62Z" style="fill:#F490B6"></path><path d="M133.18,164.72a.73.73,0,0,1-.25,0,.75.75,0,0,1-.47-.52c-3-12,5.3-17.13,5.39-17.17a.7.7,0,0,1,.66-.05.75.75,0,0,1,.44.51c1.73,7.11-2,14.64-5.32,17.12A.74.74,0,0,1,133.18,164.72Zm4.54-15.81c-1.8,1.51-5.61,5.73-4.09,13.66A17.58,17.58,0,0,0,137.72,148.91Z" style="fill:#F490B6"></path><path d="M141.79,135.12c-2,6.27-9.12,11.09-13.3,11.86C131.89,136,141.79,135.12,141.79,135.12Z" style="fill:#F490B6"></path><path d="M128.49,147.72a.73.73,0,0,1-.55-.25.76.76,0,0,1-.16-.71,17.15,17.15,0,0,1,13.95-12.38.75.75,0,0,1,.64.27.73.73,0,0,1,.13.69c-2.1,6.7-9.54,11.57-13.87,12.37Zm12.16-11.65a15.37,15.37,0,0,0-11,9.84C133.43,144.65,138.58,140.85,140.65,136.07Z" style="fill:#F490B6"></path><path d="M143.43,132.26c-1.27,6.46,2.67,14.27,5.94,17.06A16.86,16.86,0,0,0,143.43,132.26Z" style="fill:#F490B6"></path><path d="M149.37,150.06a.7.7,0,0,1-.48-.18c-3.39-2.88-7.55-10.87-6.19-17.76a.74.74,0,0,1,.45-.55.78.78,0,0,1,.71.08,17.76,17.76,0,0,1,6.24,17.81.77.77,0,0,1-.49.56A.67.67,0,0,1,149.37,150.06ZM144,133.68c-.46,5.2,2.21,11.1,4.89,14.1A16,16,0,0,0,144,133.68Z" style="fill:#F490B6"></path><path d="M147.93,120.13c-1.27,6.46,2.66,14.27,5.93,17.06A16.86,16.86,0,0,0,147.93,120.13Z" style="fill:#F490B6"></path><path d="M153.86,137.93a.74.74,0,0,1-.48-.18c-3.39-2.88-7.54-10.87-6.18-17.76a.74.74,0,0,1,.45-.55.76.76,0,0,1,.7.08,17.74,17.74,0,0,1,6.24,17.81.74.74,0,0,1-.48.56A.69.69,0,0,1,153.86,137.93Zm-5.38-16.38c-.46,5.2,2.2,11.1,4.89,14.1A16,16,0,0,0,148.48,121.55Z" style="fill:#F490B6"></path><path d="M152.19,109.84c-1.27,6.46,2.67,14.27,5.94,17A16.85,16.85,0,0,0,152.19,109.84Z" style="fill:#F490B6"></path><path d="M158.13,127.64a.7.7,0,0,1-.48-.18c-3.39-2.89-7.55-10.87-6.19-17.77a.75.75,0,0,1,.45-.54.73.73,0,0,1,.71.08A17.76,17.76,0,0,1,158.86,127a.77.77,0,0,1-.49.56A1,1,0,0,1,158.13,127.64Zm-5.39-16.38c-.46,5.2,2.21,11.09,4.89,14.1A16,16,0,0,0,152.74,111.26Z" style="fill:#F490B6"></path><path d="M158.4,99.53c-1.28,6.46,2.66,14.27,5.93,17.06A16.86,16.86,0,0,0,158.4,99.53Z" style="fill:#F490B6"></path><path d="M164.33,117.33a.74.74,0,0,1-.48-.18c-3.39-2.88-7.54-10.87-6.18-17.76a.74.74,0,0,1,1.15-.47,17.76,17.76,0,0,1,6.24,17.82.74.74,0,0,1-.48.55A.73.73,0,0,1,164.33,117.33ZM159,101c-.46,5.21,2.2,11.1,4.89,14.11A16,16,0,0,0,159,101Z" style="fill:#F490B6"></path><path d="M164.21,89.13c-1.66,6.36,1.82,14.31,4.93,17.22C172.12,95.21,164.21,89.13,164.21,89.13Z" style="fill:#F490B6"></path><path d="M169.14,107.09a.76.76,0,0,1-.51-.2c-3.23-3-6.92-11.15-5.14-17.94a.78.78,0,0,1,.48-.52.74.74,0,0,1,.7.12,17.36,17.36,0,0,1,5.19,18,.76.76,0,0,1-.51.53A.75.75,0,0,1,169.14,107.09Zm-4.46-16.53c-.79,5.16,1.54,11.15,4.06,14.26A15.63,15.63,0,0,0,164.68,90.56Z" style="fill:#F490B6"></path><path d="M172.38,79.94c-3.12,5.83-1.45,14.06,1,17.4C178.9,87.14,172.38,79.94,172.38,79.94Z" style="fill:#F490B6"></path><path d="M173.38,98.08a.73.73,0,0,1-.59-.3c-2.56-3.48-4.4-12-1.07-18.19a.78.78,0,0,1,.57-.39.75.75,0,0,1,.64.24c.07.08,6.81,7.71,1.11,18.25a.76.76,0,0,1-.6.39Zm-.85-16.72c-2,4.84-1,11,.78,14.46A14.4,14.4,0,0,0,172.53,81.36Z" style="fill:#F490B6"></path><path d="M145.22,125.34c-3.72,5.52-12.17,8.56-16.54,8.41A18.14,18.14,0,0,1,145.22,125.34Z" style="fill:#F490B6"></path><path d="M129,134.5h-.34a.74.74,0,0,1-.63-.41.72.72,0,0,1,0-.75,19.07,19.07,0,0,1,17.25-8.74.71.71,0,0,1,.58.43.72.72,0,0,1-.06.72C142,131.48,133.59,134.5,129,134.5ZM143.77,126a17.32,17.32,0,0,0-13.6,6.94C134.27,132.54,140.37,130.05,143.77,126Z" style="fill:#F490B6"></path><path d="M149.38,113.52c-3,5.88-10.95,9.71-15.27,10A17.29,17.29,0,0,1,149.38,113.52Z" style="fill:#F490B6"></path><path d="M134.11,124.22a.75.75,0,0,1-.62-.33.77.77,0,0,1,0-.75,18.2,18.2,0,0,1,16-10.36.76.76,0,0,1,.62.36.79.79,0,0,1,0,.72c-3.19,6.27-11.42,10.11-15.89,10.36Zm13.95-9.9a16.43,16.43,0,0,0-12.59,8.23C139.46,121.78,145.2,118.71,148.06,114.32Z" style="fill:#F490B6"></path><path d="M154.41,104.38c-4.63,4.94-13.61,6.88-18,6.2A19.34,19.34,0,0,1,154.41,104.38Z" style="fill:#F490B6"></path><path d="M138.35,111.46a13.73,13.73,0,0,1-2-.14.74.74,0,0,1-.43-1.24,19.91,19.91,0,0,1,18.69-6.42.75.75,0,0,1,.53.52.74.74,0,0,1-.17.71C150.69,109.44,143.2,111.46,138.35,111.46ZM138.1,110c4.18.07,10.66-1.59,14.72-5.09A18.5,18.5,0,0,0,138.1,110Z" style="fill:#F490B6"></path><path d="M161.21,92.79c-5.46,4.23-14.8,5-19.06,3.78A20.46,20.46,0,0,1,161.21,92.79Z" style="fill:#F490B6"></path><path d="M146.75,97.84a18.15,18.15,0,0,1-4.81-.56.72.72,0,0,1-.52-.57.76.76,0,0,1,.27-.73c9.77-7.63,19.39-4,19.79-3.88a.74.74,0,0,1,.47.58.75.75,0,0,1-.28.7C157.53,96.58,151.47,97.84,146.75,97.84ZM144,96.18c4.18.58,10.89-.23,15.54-3.1A20.07,20.07,0,0,0,144,96.18Z" style="fill:#F490B6"></path><path d="M168.29,83.5c-6.15,3.5-15.64,3.16-19.73,1.47C159.3,78.79,168.29,83.5,168.29,83.5Z" style="fill:#F490B6"></path><path d="M156.5,87a23.07,23.07,0,0,1-8.22-1.3.76.76,0,0,1-.46-.64.73.73,0,0,1,.37-.69c11-6.32,20.06-1.69,20.44-1.49a.77.77,0,0,1,.4.65.76.76,0,0,1-.38.66A25.24,25.24,0,0,1,156.5,87Zm-6-2.16a27.35,27.35,0,0,0,16-1.22A21.08,21.08,0,0,0,150.46,84.8Z" style="fill:#F490B6"></path><path d="M176.15,75.65c-7,2.17-16.39,0-20-2.36C168.38,69.43,176.15,75.65,176.15,75.65Z" style="fill:#F490B6"></path><path d="M169.57,77.31c-5.65,0-11.2-1.66-13.86-3.4a.74.74,0,0,1,.18-1.33c12.51-3.93,20.4,2.23,20.73,2.49a.75.75,0,0,1,.26.72.74.74,0,0,1-.51.57A23,23,0,0,1,169.57,77.31Zm-11.49-3.8a29.14,29.14,0,0,0,16.23,1.85A22.29,22.29,0,0,0,158.08,73.51Z" style="fill:#F490B6"></path><path d="M354.76,298.39h-.1c-5.39-.54-10.28-3.5-14.5-8.8-17.36-21.74-20.44-78.27-17.28-103.8a.91.91,0,0,1,1-.8.92.92,0,0,1,.8,1c-3,24.56.09,81.39,16.89,102.44,3.91,4.89,8.37,7.62,13.26,8.12a.92.92,0,0,1-.09,1.83Z" style="fill:#F490B6"></path><path d="M323.75,185.85c4.64-7.06,3.56-17.06.9-21.12C316.45,177.08,323.75,185.85,323.75,185.85Z" style="fill:#F490B6"></path><path d="M323.75,186.77a.9.9,0,0,1-.7-.33c-.08-.1-7.64-9.44.84-22.22a.9.9,0,0,1,.76-.41.94.94,0,0,1,.77.41c2.78,4.25,4.07,14.57-.9,22.13a.9.9,0,0,1-.71.41Zm.84-20.22c-5,8.6-2.37,15.09-.89,17.59A21.73,21.73,0,0,0,324.59,166.55Z" style="fill:#F490B6"></path><path d="M322.73,201.88c.3-8.12-6-16.68-10.57-19.31C311.55,196.8,322.73,201.88,322.73,201.88Z" style="fill:#F490B6"></path><path d="M322.73,202.8a.85.85,0,0,1-.38-.09c-.12-.05-11.73-5.5-11.1-20.18a.89.89,0,0,1,.47-.76.88.88,0,0,1,.9,0c4.71,2.72,11.35,11.46,11,20.13a.93.93,0,0,1-.92.89Zm-9.67-18.51a19.24,19.24,0,0,0,8.73,16C321.35,193.86,316.94,187.32,313.06,184.29Z" style="fill:#F490B6"></path><path d="M323.45,205.88c1.19-8,9-15.5,14-17.39C335.4,202.61,323.45,205.88,323.45,205.88Z" style="fill:#F490B6"></path><path d="M323.45,206.8a.93.93,0,0,1-.61-.23.94.94,0,0,1-.3-.82c1.28-8.59,9.42-16.16,14.56-18.12a.9.9,0,0,1,.89.15.89.89,0,0,1,.34.84,21.94,21.94,0,0,1-14.64,18.15Zm12.76-16.73c-4.37,2.39-9.91,8.14-11.53,14.39A19.79,19.79,0,0,0,336.21,190.07Z" style="fill:#F490B6"></path><path d="M323.66,221.86c1.2-8,9-15.5,14-17.39C335.61,218.59,323.66,221.86,323.66,221.86Z" style="fill:#F490B6"></path><path d="M323.66,222.78a.92.92,0,0,1-.9-1.05c1.27-8.59,9.41-16.16,14.55-18.12a.94.94,0,0,1,.9.14.93.93,0,0,1,.33.85,22,22,0,0,1-14.63,18.15A1,1,0,0,1,323.66,222.78Zm12.76-16.73c-4.37,2.39-9.91,8.14-11.53,14.39A19.77,19.77,0,0,0,336.42,206.05Z" style="fill:#F490B6"></path><path d="M324.36,235.6c1.2-8,9-15.5,14-17.39C336.31,232.33,324.36,235.6,324.36,235.6Z" style="fill:#F490B6"></path><path d="M324.36,236.52a.9.9,0,0,1-.6-.23.88.88,0,0,1-.3-.82c1.27-8.58,9.41-16.16,14.55-18.12a.92.92,0,0,1,.9.15.9.9,0,0,1,.33.84,21.93,21.93,0,0,1-14.63,18.15A1,1,0,0,1,324.36,236.52Zm12.76-16.73c-4.37,2.39-9.91,8.14-11.53,14.39A19.75,19.75,0,0,0,337.12,219.79Z" style="fill:#F490B6"></path><path d="M322.66,214.68c-2-8-10.61-15-15.76-16.64A22.4,22.4,0,0,0,322.66,214.68Z" style="fill:#F490B6"></path><path d="M322.66,215.6l-.19,0A23.56,23.56,0,0,1,306,198.26a.92.92,0,0,1,1.17-1.1c5.32,1.69,14.21,8.82,16.37,17.29a.92.92,0,0,1-.22.87A1,1,0,0,1,322.66,215.6Zm-14.36-16a21.38,21.38,0,0,0,13,13.71C319,207.19,312.9,201.77,308.3,199.59Z" style="fill:#F490B6"></path><path d="M322.62,230.16c-1-8.09-8.72-15.84-13.65-17.91A21.37,21.37,0,0,0,322.62,230.16Z" style="fill:#F490B6"></path><path d="M322.62,231.07a.84.84,0,0,1-.27,0,22.47,22.47,0,0,1-14.29-18.67.93.93,0,0,1,1.27-1c5.1,2.15,13.09,10,14.2,18.64a.91.91,0,0,1-.32.82A.89.89,0,0,1,322.62,231.07Zm-12.46-17.19a20.31,20.31,0,0,0,11.26,14.8C319.9,222.38,314.49,216.44,310.16,213.88Z" style="fill:#F490B6"></path></g><g id="freepik--Icon--inject-5"><rect x="321.26" y="91.08" width="64.57" height="46.06" rx="9.36" style="fill:#F490B6"></rect><path d="M376.48,137.73H330.62a10,10,0,0,1-9.94-9.94V100.44a10,10,0,0,1,9.94-9.94h45.86a10,10,0,0,1,9.94,9.94v27.35A10,10,0,0,1,376.48,137.73ZM330.62,91.66a8.79,8.79,0,0,0-8.78,8.78v27.35a8.79,8.79,0,0,0,8.78,8.78h45.86a8.79,8.79,0,0,0,8.78-8.78V100.44a8.79,8.79,0,0,0-8.78-8.78Z" style="fill:#F490B6"></path><polygon points="363.41 114.11 345.57 103.81 345.57 124.41 363.41 114.11" style="fill:#fff"></polygon></g><g id="freepik--speech-bubble--inject-5"><rect x="98.33" y="205.59" width="93.78" height="59.08" rx="12" style="fill:#F490B6"></rect><path d="M180.11,265.42H110.33a12.76,12.76,0,0,1-12.74-12.75V217.59a12.75,12.75,0,0,1,12.74-12.74h69.78a12.75,12.75,0,0,1,12.74,12.74v35.08A12.76,12.76,0,0,1,180.11,265.42Zm-69.78-59.09a11.27,11.27,0,0,0-11.26,11.26v35.08a11.27,11.27,0,0,0,11.26,11.26h69.78a11.27,11.27,0,0,0,11.25-11.26V217.59a11.27,11.27,0,0,0-11.25-11.26Z" style="fill:#F490B6"></path><polygon points="149.59 248.86 181.22 280.49 181.22 248.86 149.59 248.86" style="fill:#F490B6"></polygon><path d="M181.22,281.23a.71.71,0,0,1-.53-.22l-31.63-31.62a.76.76,0,0,1-.16-.81.75.75,0,0,1,.69-.46h31.63a.74.74,0,0,1,.74.74v31.63a.75.75,0,0,1-.46.69A.92.92,0,0,1,181.22,281.23ZM151.38,249.6l29.09,29.1V249.6Z" style="fill:#F490B6"></path><circle cx="145.22" cy="239.13" r="7.52" style="fill:#fff"></circle><circle cx="165.22" cy="235.13" r="7.52" style="fill:#fff"></circle><circle cx="125.22" cy="231.13" r="7.52" style="fill:#fff"></circle></g></svg>